<svg width="48" height="48" viewBox="0 0 48 48" fill="none" xmlns="http://www.w3.org/2000/svg">
<path d="M0 16.1C0 10.4051 0 7.55764 1.12587 5.39026C2.07462 3.56382 3.56382 2.07462 5.39026 1.12587C7.55764 0 10.4051 0 16.1 0H31.9C37.5949 0 40.4424 0 42.6097 1.12587C44.4362 2.07462 45.9254 3.56382 46.8741 5.39026C48 7.55764 48 10.4051 48 16.1V31.9C48 37.5949 48 40.4424 46.8741 42.6097C45.9254 44.4362 44.4362 45.9254 42.6097 46.8741C40.4424 48 37.5949 48 31.9 48H16.1C10.4051 48 7.55764 48 5.39026 46.8741C3.56382 45.9254 2.07462 44.4362 1.12587 42.6097C0 40.4424 0 37.5949 0 31.9V16.1Z" fill="#1EA1F2"/>
<path fill-rule="evenodd" clip-rule="evenodd" d="M37.3229 18.1522C37.3346 18.452 37.3384 18.7517 37.3384 19.0515C37.3384 28.141 30.9444 38.6343 19.252 38.6343C15.6603 38.6343 12.3205 37.4895 9.50656 35.5408C10.004 35.5953 10.5091 35.6363 11.0221 35.6363C14.0001 35.6363 16.743 34.5322 18.9187 32.6789C16.137 32.638 13.7882 30.6348 12.9781 27.9093C13.367 27.9911 13.7675 28.0321 14.1771 28.0321C14.7546 28.0321 15.3153 27.9504 15.8528 27.7869C12.9419 27.16 10.7495 24.3801 10.7495 21.0414C10.7495 21.0005 10.7495 20.9868 10.7495 20.9595C11.6073 21.4638 12.5892 21.777 13.6319 21.8179C11.9239 20.5778 10.8011 18.4656 10.8011 16.0808C10.8011 14.8271 11.1138 13.6415 11.6641 12.6194C14.7985 16.7894 19.4846 19.5285 24.7675 19.8147C24.6589 19.3105 24.6034 18.7792 24.6034 18.2477C24.6034 14.4456 27.4496 11.3658 30.9612 11.3658C32.7893 11.3658 34.4405 12.1972 35.5994 13.5327C37.0503 13.2329 38.4095 12.6605 39.6395 11.8702C39.1627 13.4782 38.1562 14.827 36.841 15.6719C38.1278 15.5084 39.3552 15.1407 40.4935 14.5956C39.6395 15.972 38.5645 17.1847 37.3229 18.1522Z" fill="white"/>
</svg>
