<svg width="42" height="50" viewBox="0 0 42 50" fill="none" xmlns="http://www.w3.org/2000/svg">
<path d="M34.9678 26.2894C35.0189 22.5409 37.1505 18.9941 40.5319 17.0307C38.3987 14.1534 34.8257 12.3291 31.1083 12.2193C27.1433 11.8262 23.2995 14.46 21.2791 14.46C19.2195 14.46 16.1087 12.2583 12.7589 12.3234C8.39258 12.4566 4.32206 14.8011 2.19775 18.4063C-2.36869 25.8729 1.03746 36.8464 5.41173 42.8819C7.60026 45.8373 10.158 49.1386 13.5048 49.0215C16.7799 48.8932 18.003 47.0492 21.9563 47.0492C25.8728 47.0492 27.0204 49.0215 30.4351 48.9471C33.9494 48.8932 36.1636 45.9785 38.2753 42.9951C39.8478 40.8893 41.0578 38.5619 41.8605 36.0991C37.7306 34.4495 34.9726 30.5243 34.9678 26.2894Z" fill="#1B1B1B"/>
<path d="M28.5179 8.25006C30.4341 6.07767 31.3781 3.28543 31.1495 0.466309C28.2221 0.756688 25.518 2.07804 23.5759 4.16708C21.6769 6.20818 20.6887 8.95129 20.8755 11.6627C23.804 11.6911 26.6829 10.4056 28.5179 8.25006Z" fill="#1B1B1B"/>
</svg>
