<svg width="33" height="40" viewBox="0 0 33 40" fill="none" xmlns="http://www.w3.org/2000/svg">
<path d="M27.2243 21.306C27.2634 18.3082 28.894 15.4716 31.4807 13.9014C29.8489 11.6004 27.1156 10.1414 24.2718 10.0536C21.2388 9.73925 18.2983 11.8455 16.7527 11.8455C15.1772 11.8455 12.7975 10.0848 10.235 10.1368C6.89481 10.2434 3.78095 12.1184 2.15589 15.0015C-1.33734 20.9729 1.26829 29.7488 4.61452 34.5756C6.2887 36.9391 8.24535 39.5793 10.8056 39.4856C13.3109 39.383 14.2466 37.9083 17.2708 37.9083C20.2668 37.9083 21.1447 39.4856 23.7569 39.4261C26.4452 39.383 28.139 37.0521 29.7545 34.6661C30.9574 32.982 31.883 31.1207 32.4971 29.1512C29.3378 27.8319 27.228 24.6928 27.2243 21.306Z" fill="white"/>
<path d="M22.2903 6.87924C23.7561 5.1419 24.4782 2.90885 24.3034 0.654297C22.0639 0.886524 19.9954 1.94326 18.5098 3.61394C17.057 5.24628 16.301 7.44005 16.444 9.60842C18.6842 9.6312 20.8865 8.60311 22.2903 6.87924Z" fill="white"/>
</svg>
 