<svg width="423" height="258" viewBox="0 0 423 258" fill="none" xmlns="http://www.w3.org/2000/svg">
<g filter="url(#filter0_dddd_10883_77084)">
<rect x="86.8232" y="31.312" width="249.042" height="84.238" rx="21.4229" fill="white"/>
</g>
<path d="M150.312 73.8135C150.363 70.0544 152.495 66.4975 155.876 64.5286C153.743 61.6431 150.17 59.8137 146.452 59.7035C142.488 59.3094 138.644 61.9505 136.623 61.9505C134.564 61.9505 131.453 59.7426 128.103 59.8079C123.737 59.9415 119.666 62.2927 117.542 65.908C112.976 73.3959 116.382 84.4004 120.756 90.453C122.945 93.4168 125.502 96.7274 128.849 96.61C132.124 96.4814 133.347 94.6321 137.301 94.6321C141.217 94.6321 142.365 96.61 145.779 96.5354C149.294 96.4813 151.508 93.5584 153.62 90.5666C155.192 88.4548 156.402 86.1208 157.205 83.651C153.075 81.9967 150.317 78.0604 150.312 73.8135Z" fill="#1B1B1B"/>
<path d="M143.862 55.723C145.778 53.5445 146.722 50.7443 146.494 47.9172C143.566 48.2084 140.862 49.5335 138.92 51.6285C137.021 53.6754 136.033 56.4263 136.22 59.1453C139.148 59.1739 142.027 57.8847 143.862 55.723Z" fill="#1B1B1B"/>
<path d="M168.948 70.5874V58.9354H172.968C176.733 58.9354 179.413 61.3438 179.413 64.7529C179.413 68.162 176.733 70.5874 172.968 70.5874H168.948ZM170.661 69.027H173.07C175.766 69.027 177.649 67.2631 177.649 64.7529C177.649 62.2597 175.766 60.4958 173.07 60.4958H170.661V69.027ZM185.768 70.7909C183.258 70.7909 181.138 68.6878 181.138 66.1946C181.138 63.7014 183.258 61.6152 185.768 61.6152C188.262 61.6152 190.365 63.7014 190.365 66.1946C190.365 68.6878 188.262 70.7909 185.768 70.7909ZM185.768 69.3323C187.346 69.3323 188.686 67.9076 188.686 66.1946C188.686 64.4985 187.346 63.0738 185.768 63.0738C184.157 63.0738 182.817 64.4985 182.817 66.1946C182.817 67.9076 184.157 69.3323 185.768 69.3323ZM194.187 70.5874L191.236 61.8187H192.949L194.967 68.3486L197.138 61.8187H198.563L200.734 68.3486L202.735 61.8187H204.448L201.497 70.5874H199.954L197.85 64.0745L195.73 70.5874H194.187ZM210.604 61.6152C212.537 61.6152 213.894 63.0229 213.894 65.0073V70.5874H212.249V65.2957C212.249 63.9897 211.418 63.0738 210.231 63.0738C209.009 63.0738 207.958 63.871 207.822 64.9056V70.5874H206.143V61.8187H207.822V63.0908C208.348 62.2258 209.417 61.6152 210.604 61.6152ZM216.296 70.5874V58.7319H217.958V70.5874H216.296ZM224.559 70.7909C222.049 70.7909 219.929 68.6878 219.929 66.1946C219.929 63.7014 222.049 61.6152 224.559 61.6152C227.053 61.6152 229.156 63.7014 229.156 66.1946C229.156 68.6878 227.053 70.7909 224.559 70.7909ZM224.559 69.3323C226.137 69.3323 227.477 67.9076 227.477 66.1946C227.477 64.4985 226.137 63.0738 224.559 63.0738C222.948 63.0738 221.608 64.4985 221.608 66.1946C221.608 67.9076 222.948 69.3323 224.559 69.3323ZM234.801 61.6152C237.158 61.6152 238.464 63.1077 238.464 65.2787V70.5874H236.819V69.3832C236.175 70.2991 234.97 70.7909 233.902 70.7909C232.036 70.7909 230.662 69.7054 230.662 67.9924C230.662 66.2455 232.24 65.0752 234.173 65.0752C235.038 65.0752 235.971 65.2618 236.819 65.5501V65.2787C236.819 64.1763 236.31 63.006 234.563 63.006C233.698 63.006 232.85 63.3452 232.087 63.7353L231.477 62.4972C232.732 61.8696 233.834 61.6152 234.801 61.6152ZM234.224 69.468C235.31 69.468 236.531 68.9253 236.819 67.8398V66.6695C236.107 66.449 235.293 66.3303 234.428 66.3303C233.257 66.3303 232.274 66.9917 232.274 67.9415C232.274 68.8913 233.122 69.468 234.224 69.468ZM247.643 58.7319H249.305V70.5874H247.643V69.0609C246.965 70.1464 245.879 70.7909 244.522 70.7909C242.216 70.7909 240.486 68.8913 240.486 66.1946C240.486 63.5148 242.216 61.6152 244.522 61.6152C245.879 61.6152 246.965 62.2597 247.643 63.3282V58.7319ZM244.929 69.3323C246.507 69.3323 247.643 68.0263 247.643 66.1946C247.643 64.3628 246.507 63.0738 244.929 63.0738C243.318 63.0738 242.182 64.3628 242.182 66.1946C242.182 68.0263 243.318 69.3323 244.929 69.3323ZM260.833 70.7909C258.322 70.7909 256.202 68.6878 256.202 66.1946C256.202 63.7014 258.322 61.6152 260.833 61.6152C263.326 61.6152 265.429 63.7014 265.429 66.1946C265.429 68.6878 263.326 70.7909 260.833 70.7909ZM260.833 69.3323C262.41 69.3323 263.75 67.9076 263.75 66.1946C263.75 64.4985 262.41 63.0738 260.833 63.0738C259.221 63.0738 257.881 64.4985 257.881 66.1946C257.881 67.9076 259.221 69.3323 260.833 69.3323ZM271.854 61.6152C273.788 61.6152 275.145 63.0229 275.145 65.0073V70.5874H273.499V65.2957C273.499 63.9897 272.668 63.0738 271.481 63.0738C270.26 63.0738 269.208 63.871 269.073 64.9056V70.5874H267.394V61.8187H269.073V63.0908C269.599 62.2258 270.667 61.6152 271.854 61.6152ZM286.504 69.0101L287.115 70.1634C286.64 70.5535 285.996 70.7909 285.368 70.7909C284.011 70.7909 283.061 69.8072 283.061 68.3995V63.2434H281.738V61.8187H283.061V59.4103H284.707V61.8187H286.776V63.2434H284.707V68.2808C284.707 68.8913 285.114 69.3323 285.605 69.3323C285.979 69.3323 286.318 69.1966 286.504 69.0101ZM293.287 61.6152C295.221 61.6152 296.577 63.0229 296.577 65.0073V70.5874H294.932V65.2957C294.932 63.9897 294.101 63.0738 292.914 63.0738C291.591 63.0738 290.489 64.0067 290.489 65.143V70.5874H288.826V58.7319H290.489V63.1247C291.014 62.2428 292.083 61.6152 293.287 61.6152ZM302.999 69.2984C303.915 69.2984 304.984 68.8913 305.509 68.3486L306.561 69.4341C305.781 70.2651 304.254 70.7909 303.016 70.7909C300.574 70.7909 298.505 68.8744 298.505 66.1776C298.505 63.5487 300.455 61.6152 302.881 61.6152C305.56 61.6152 307.104 63.6505 307.104 66.7882H300.201C300.421 68.2468 301.49 69.2984 302.999 69.2984ZM302.948 63.1077C301.592 63.1077 300.489 64.0236 300.218 65.4483H305.476C305.289 64.0915 304.458 63.1077 302.948 63.1077Z" fill="#1B1B1B"/>
<path d="M181.055 92.4446L180.01 89.8801H172.744L171.699 92.4446H167.781L174.43 76.1318H178.348L184.996 92.4446H181.055ZM173.955 86.912H178.799L176.377 80.952L173.955 86.912ZM194.399 79.8835C197.676 79.8835 200.05 82.5429 200.05 86.2946C200.05 90.0701 197.676 92.7295 194.399 92.7295C192.689 92.7295 191.265 91.9934 190.291 90.7112V96.5287H186.824V80.1684H190.291V81.8781C191.265 80.6196 192.689 79.8835 194.399 79.8835ZM193.402 89.8089C195.325 89.8089 196.678 88.3605 196.678 86.2946C196.678 84.2526 195.325 82.8041 193.402 82.8041C191.716 82.8041 190.481 84.0389 190.291 85.8197V86.7695C190.481 88.5742 191.716 89.8089 193.402 89.8089ZM210.074 79.8835C213.351 79.8835 215.726 82.5429 215.726 86.2946C215.726 90.0701 213.351 92.7295 210.074 92.7295C208.365 92.7295 206.94 91.9934 205.966 90.7112V96.5287H202.5V80.1684H205.966V81.8781C206.94 80.6196 208.365 79.8835 210.074 79.8835ZM209.077 89.8089C211 89.8089 212.354 88.3605 212.354 86.2946C212.354 84.2526 211 82.8041 209.077 82.8041C207.391 82.8041 206.156 84.0389 205.966 85.8197V86.7695C206.156 88.5742 207.391 89.8089 209.077 89.8089ZM231.076 92.7295C228.25 92.7295 225.733 91.7797 223.833 90.0226L225.852 87.6244C227.395 88.9541 229.152 89.7614 231.218 89.7614C232.975 89.7614 233.877 88.9541 233.877 87.933C233.877 86.7695 232.928 86.4134 230.434 85.8435C226.991 85.0599 224.546 84.0864 224.546 80.9283C224.546 77.9127 227.015 75.8469 230.577 75.8469C233.236 75.8469 235.302 76.6779 236.964 78.1026L235.136 80.6196C233.687 79.4561 232.049 78.815 230.482 78.815C228.986 78.815 228.084 79.5986 228.084 80.5721C228.084 81.7594 229.057 82.1393 231.574 82.7092C235.088 83.4927 237.415 84.5375 237.415 87.5531C237.415 90.6637 235.065 92.7295 231.076 92.7295ZM246.292 89.4052L247.123 91.661C246.41 92.3021 245.294 92.7295 244.297 92.7295C242.136 92.7295 240.617 91.1861 240.617 88.9778V82.9703H238.931V80.1684H240.617V76.7967H243.941V80.1684H246.6V82.9703H243.941V88.4317C243.941 89.239 244.463 89.8089 245.104 89.8089C245.579 89.8089 246.054 89.6427 246.292 89.4052ZM255.325 92.7295C251.668 92.7295 248.605 89.7851 248.605 86.2946C248.605 82.8041 251.668 79.8835 255.325 79.8835C258.958 79.8835 261.997 82.8041 261.997 86.2946C261.997 89.7851 258.958 92.7295 255.325 92.7295ZM255.325 89.8089C257.153 89.8089 258.697 88.1942 258.697 86.2946C258.697 84.395 257.153 82.8041 255.325 82.8041C253.473 82.8041 251.93 84.395 251.93 86.2946C251.93 88.1942 253.473 89.8089 255.325 89.8089ZM267.81 82.448C268.617 80.857 270.137 79.8835 272.013 79.8835V82.8041C269.448 82.8041 267.81 84.2763 267.81 86.5796V92.4446H264.343V80.1684H267.81V82.448ZM279.806 89.6664C280.78 89.6664 281.967 89.2153 282.632 88.5742L284.84 90.8299C283.748 91.9697 281.635 92.7295 279.83 92.7295C276.173 92.7295 273.324 90.0463 273.324 86.2709C273.324 82.5667 276.055 79.8835 279.64 79.8835C283.487 79.8835 285.743 82.8041 285.743 87.4344H276.886C277.289 88.7641 278.358 89.6664 279.806 89.6664ZM279.783 82.9466C278.477 82.9466 277.384 83.7064 276.933 84.9412H282.418C282.086 83.7302 281.184 82.9466 279.783 82.9466Z" fill="#1B1B1B"/>
<defs>
<filter id="filter0_dddd_10883_77084" x="0.378258" y="0.802017" width="421.932" height="257.128" filterUnits="userSpaceOnUse" color-interpolation-filters="sRGB">
<feFlood flood-opacity="0" result="BackgroundImageFix"/>
<feColorMatrix in="SourceAlpha" type="matrix" values="0 0 0 0 0 0 0 0 0 0 0 0 0 0 0 0 0 0 127 0" result="hardAlpha"/>
<feOffset dy="2.53318"/>
<feGaussianBlur stdDeviation="1.95746"/>
<feColorMatrix type="matrix" values="0 0 0 0 0 0 0 0 0 0 0 0 0 0 0 0 0 0 0.0268173 0"/>
<feBlend mode="normal" in2="BackgroundImageFix" result="effect1_dropShadow_10883_77084"/>
<feColorMatrix in="SourceAlpha" type="matrix" values="0 0 0 0 0 0 0 0 0 0 0 0 0 0 0 0 0 0 127 0" result="hardAlpha"/>
<feOffset dy="7.00393"/>
<feGaussianBlur stdDeviation="5.41213"/>
<feColorMatrix type="matrix" values="0 0 0 0 0 0 0 0 0 0 0 0 0 0 0 0 0 0 0.0399899 0"/>
<feBlend mode="normal" in2="effect1_dropShadow_10883_77084" result="effect2_dropShadow_10883_77084"/>
<feColorMatrix in="SourceAlpha" type="matrix" values="0 0 0 0 0 0 0 0 0 0 0 0 0 0 0 0 0 0 127 0" result="hardAlpha"/>
<feOffset dy="16.8628"/>
<feGaussianBlur stdDeviation="13.0303"/>
<feColorMatrix type="matrix" values="0 0 0 0 0 0 0 0 0 0 0 0 0 0 0 0 0 0 0.0582218 0"/>
<feBlend mode="normal" in2="effect2_dropShadow_10883_77084" result="effect3_dropShadow_10883_77084"/>
<feColorMatrix in="SourceAlpha" type="matrix" values="0 0 0 0 0 0 0 0 0 0 0 0 0 0 0 0 0 0 127 0" result="hardAlpha"/>
<feOffset dy="55.935"/>
<feGaussianBlur stdDeviation="43.2225"/>
<feColorMatrix type="matrix" values="0 0 0 0 0 0 0 0 0 0 0 0 0 0 0 0 0 0 0.08 0"/>
<feBlend mode="normal" in2="effect3_dropShadow_10883_77084" result="effect4_dropShadow_10883_77084"/>
<feBlend mode="normal" in="SourceGraphic" in2="effect4_dropShadow_10883_77084" result="shape"/>
</filter>
</defs>
</svg>
