<svg width="64" height="64" viewBox="0 0 64 64" fill="none" xmlns="http://www.w3.org/2000/svg">
<path d="M28.76 41.0935C28.5067 41.0935 28.2534 41.0002 28.0534 40.8002L19.96 32.7068C19.5734 32.3202 19.5734 31.6802 19.96 31.2935L28.0534 23.2002C28.44 22.8135 29.08 22.8135 29.4667 23.2002C29.8534 23.5868 29.8534 24.2268 29.4667 24.6135L22.08 32.0002L29.4667 39.3868C29.8534 39.7735 29.8534 40.4135 29.4667 40.8002C29.28 41.0002 29.0134 41.0935 28.76 41.0935Z" fill="white"/>
<path d="M43.3332 33H20.8932C20.3466 33 19.8932 32.5467 19.8932 32C19.8932 31.4533 20.3466 31 20.8932 31H43.3332C43.8799 31 44.3332 31.4533 44.3332 32C44.3332 32.5467 43.8799 33 43.3332 33Z" fill="white"/>
<rect x="1" y="1" width="62" height="62" rx="11" stroke="#07E7F7" stroke-width="2"/>
</svg>
