<svg width="44" height="44" viewBox="0 0 44 44" fill="none" xmlns="http://www.w3.org/2000/svg">
<path d="M35.4454 5.45378C35.1408 5.01632 34.7306 4.6964 34.2158 4.49345C33.8879 4.3531 33.5443 4.2828 33.1851 4.2828V4.28247H8.64043C8.28138 4.28247 7.93809 4.35277 7.61013 4.49312C7.09498 4.6959 6.68499 5.01623 6.38057 5.45346C6.07624 5.89068 5.92383 6.37449 5.92383 6.90548V37.0942C5.92383 37.6254 6.07624 38.109 6.38057 38.5467C6.68499 38.9838 7.09498 39.3041 7.61013 39.5068C7.93776 39.6471 8.28138 39.7173 8.64043 39.7173C9.37452 39.7173 10.0222 39.4595 10.5844 38.9447L20.9128 29.0139L31.2413 38.9449C31.7879 39.4438 32.4358 39.6936 33.185 39.6936C33.5755 39.6936 33.919 39.6316 34.2157 39.5067C34.7305 39.304 35.1407 38.9837 35.4453 38.546C35.7496 38.109 35.9017 37.6252 35.9017 37.0942V6.90581C35.9018 6.37482 35.7494 5.89101 35.4454 5.45378ZM32.9041 36.3678L22.9973 26.8592L20.9128 24.8688L18.8285 26.8592L8.92188 36.3678V7.2806H32.9041V36.3678Z" fill="#828282"/>
</svg>
