<svg width="44" height="44" viewBox="0 0 44 44" fill="none" xmlns="http://www.w3.org/2000/svg">
<path d="M37.7615 4.28247H6.23699C5.15755 4.28312 4.2825 5.15861 4.28271 6.23848V37.763C4.28336 38.8424 5.15885 39.7175 6.23872 39.7173H23.2113V26.014H18.6089V20.6503H23.2113V16.703C23.2113 12.1255 26.0058 9.63402 30.0891 9.63402C32.0449 9.63402 33.7256 9.77979 34.2154 9.84489V14.6292H31.3997C29.1781 14.6292 28.7479 15.6848 28.7479 17.2342V20.6503H34.0597L33.3676 26.014H28.7479V39.7173H37.7615C38.8416 39.7175 39.7173 38.8422 39.7175 37.7621C39.7175 37.7619 39.7175 37.7617 39.7175 37.7612V6.23675C39.7171 5.15731 38.8414 4.28225 37.7615 4.28247Z" fill="#828282"/>
</svg>
