<svg width="351" height="138" viewBox="0 0 351 138" fill="none" xmlns="http://www.w3.org/2000/svg">
<g filter="url(#filter0_dddd_10883_77292)">
<rect x="74.9727" y="27.3" width="201.6" height="72" rx="5.76" fill="#1B1D21"/>
<rect x="74.5282" y="26.8556" width="202.489" height="72.8889" rx="6.20444" stroke="#444445" stroke-width="0.888889"/>
</g>
<path d="M142.537 52.9592V51.692H146.626V55.6376C145.69 56.588 144.135 57.1928 142.738 57.1928C139.959 57.1928 137.583 54.8456 137.583 52.0664C137.583 49.2872 139.959 46.9544 142.738 46.9544C144.135 46.9544 145.69 47.5448 146.626 48.5096L145.604 49.4888C144.927 48.7544 143.761 48.2936 142.738 48.2936C140.751 48.2936 139.081 50.0216 139.081 52.0664C139.081 54.1256 140.751 55.8536 142.738 55.8536C143.574 55.8536 144.51 55.5512 145.186 55.0328V52.9592H142.537ZM152.057 55.9256C152.835 55.9256 153.742 55.58 154.189 55.1192L155.081 56.0408C154.419 56.7464 153.123 57.1928 152.072 57.1928C149.998 57.1928 148.241 55.5656 148.241 53.276C148.241 51.044 149.897 49.4024 151.957 49.4024C154.232 49.4024 155.542 51.1304 155.542 53.7944H149.681C149.869 55.0328 150.776 55.9256 152.057 55.9256ZM152.014 50.6696C150.862 50.6696 149.926 51.4472 149.696 52.6568H154.16C154.001 51.5048 153.296 50.6696 152.014 50.6696ZM160.679 55.6808L161.198 56.66C160.795 56.9912 160.247 57.1928 159.715 57.1928C158.563 57.1928 157.756 56.3576 157.756 55.1624V50.7848H156.633V49.5752H157.756V47.5304H159.153V49.5752H160.91V50.7848H159.153V55.0616C159.153 55.58 159.499 55.9544 159.916 55.9544C160.233 55.9544 160.521 55.8392 160.679 55.6808ZM167.477 48.3368C166.987 48.3368 166.613 47.9336 166.613 47.4728C166.613 47.0264 166.987 46.6232 167.477 46.6232C167.937 46.6232 168.326 47.0264 168.326 47.4728C168.326 47.9336 167.937 48.3368 167.477 48.3368ZM166.757 57.02V49.5752H168.182V57.02H166.757ZM173.729 55.6808L174.248 56.66C173.845 56.9912 173.297 57.1928 172.765 57.1928C171.613 57.1928 170.806 56.3576 170.806 55.1624V50.7848H169.683V49.5752H170.806V47.5304H172.203V49.5752H173.96V50.7848H172.203V55.0616C172.203 55.58 172.549 55.9544 172.966 55.9544C173.283 55.9544 173.571 55.8392 173.729 55.6808ZM184.616 57.1928C181.837 57.1928 179.475 54.8456 179.475 52.0664C179.475 49.2872 181.837 46.9544 184.616 46.9544C187.395 46.9544 189.728 49.2872 189.728 52.0664C189.728 54.8456 187.395 57.1928 184.616 57.1928ZM184.616 55.8536C186.589 55.8536 188.245 54.1256 188.245 52.0664C188.245 50.0216 186.589 48.2936 184.616 48.2936C182.643 48.2936 180.973 50.0216 180.973 52.0664C180.973 54.1256 182.643 55.8536 184.616 55.8536ZM195.252 49.4024C196.894 49.4024 198.046 50.5976 198.046 52.2824V57.02H196.649V52.5272C196.649 51.4184 195.943 50.6408 194.935 50.6408C193.898 50.6408 193.006 51.3176 192.89 52.196V57.02H191.465V49.5752H192.89V50.6552C193.337 49.9208 194.244 49.4024 195.252 49.4024Z" fill="white"/>
<path d="M144.613 70.9566V68.6382H150.742V74.3434C149.351 75.795 147.214 76.6618 145.138 76.6618C141.126 76.6618 137.719 73.3758 137.719 69.4849C137.719 65.594 141.126 62.3281 145.138 62.3281C147.214 62.3281 149.351 63.195 150.742 64.6465L148.585 66.5818C147.758 65.6343 146.408 65.0295 145.138 65.0295C142.779 65.0295 140.783 67.0858 140.783 69.4849C140.783 71.9041 142.779 73.9604 145.138 73.9604C146.085 73.9604 147.053 73.6378 147.839 73.0734V70.9566H144.613ZM158.285 76.6618C155.181 76.6618 152.58 74.162 152.58 71.1985C152.58 68.235 155.181 65.7553 158.285 65.7553C161.37 65.7553 163.95 68.235 163.95 71.1985C163.95 74.162 161.37 76.6618 158.285 76.6618ZM158.285 74.1822C159.837 74.1822 161.148 72.8113 161.148 71.1985C161.148 69.5857 159.837 68.235 158.285 68.235C156.713 68.235 155.402 69.5857 155.402 71.1985C155.402 72.8113 156.713 74.1822 158.285 74.1822ZM171.062 76.6618C167.958 76.6618 165.357 74.162 165.357 71.1985C165.357 68.235 167.958 65.7553 171.062 65.7553C174.147 65.7553 176.727 68.235 176.727 71.1985C176.727 74.162 174.147 76.6618 171.062 76.6618ZM171.062 74.1822C172.615 74.1822 173.925 72.8113 173.925 71.1985C173.925 69.5857 172.615 68.235 171.062 68.235C169.49 68.235 168.179 69.5857 168.179 71.1985C168.179 72.8113 169.49 74.1822 171.062 74.1822ZM186.259 65.9972H189.222V75.3111C189.222 77.9924 186.904 79.8874 183.618 79.8874C181.783 79.8874 180.049 79.3028 179.021 78.4964L180.049 76.4199C180.735 77.0247 181.944 77.4078 183.154 77.4078C185.049 77.4078 186.259 76.5409 186.259 75.1902V74.041C185.432 75.049 184.182 75.6538 182.811 75.6538C180.191 75.6538 178.195 73.5975 178.195 70.6945C178.195 67.7914 180.191 65.7553 182.811 65.7553C184.223 65.7553 185.553 66.4206 186.259 67.4084V65.9972ZM183.739 73.1742C185.21 73.1742 186.259 72.146 186.259 70.6945C186.259 69.243 185.21 68.235 183.739 68.235C182.267 68.235 181.219 69.243 181.219 70.6945C181.219 72.146 182.267 73.1742 183.739 73.1742ZM191.811 76.4199V62.3281H194.754V76.4199H191.811ZM202.243 74.0612C203.069 74.0612 204.077 73.6782 204.642 73.1338L206.517 75.049C205.589 76.0167 203.795 76.6618 202.263 76.6618C199.158 76.6618 196.739 74.3838 196.739 71.1783C196.739 68.0334 199.057 65.7553 202.102 65.7553C205.367 65.7553 207.283 68.235 207.283 72.1662H199.763C200.106 73.2951 201.013 74.0612 202.243 74.0612ZM202.222 68.3559C201.114 68.3559 200.186 69.001 199.803 70.0494H204.46C204.178 69.0212 203.412 68.3559 202.222 68.3559ZM214.985 76.4199V62.57H221.215C224.218 62.57 226.436 64.5054 226.436 67.2471C226.436 69.9889 224.218 71.9242 221.215 71.9242H217.949V76.4199H214.985ZM217.949 69.2026H220.892C222.364 69.2026 223.372 68.4366 223.372 67.2471C223.372 66.0577 222.364 65.2916 220.892 65.2916H217.949V69.2026ZM228.213 76.4199V62.3281H231.157V76.4199H228.213ZM238.383 65.7553C241.104 65.7553 242.959 67.4689 242.959 70.1905V76.4199H240.116V75.3716C239.371 76.2183 238.181 76.6618 237.052 76.6618C234.835 76.6618 233.121 75.3313 233.121 73.3354C233.121 71.2791 235.036 69.8679 237.455 69.8679C238.302 69.8679 239.229 70.0494 240.116 70.3921V70.1905C240.116 69.0817 239.431 68.114 237.717 68.114C236.75 68.114 235.843 68.4366 235.016 68.8599L234.028 66.9044C235.5 66.1585 236.931 65.7553 238.383 65.7553ZM237.717 74.6257C238.846 74.6257 239.915 74.1015 240.116 73.1338V72.1662C239.451 71.9242 238.685 71.7831 237.879 71.7831C236.81 71.7831 235.964 72.4081 235.964 73.2548C235.964 74.1015 236.709 74.6257 237.717 74.6257ZM247.819 80.0487C246.952 80.0487 245.904 79.7866 245.198 79.4036L245.823 77.3876C246.327 77.6698 246.851 77.8513 247.194 77.8513C247.758 77.8513 248.202 77.6698 248.424 77.2868L248.786 76.5207L244.452 65.9972H247.496L250.238 73.3153L252.839 65.9972H255.842L251.568 76.9441C250.782 78.9802 249.452 80.0487 247.819 80.0487Z" fill="white"/>
<g filter="url(#filter1_ii_10883_77292)">
<path d="M94.3576 45.1518C93.9386 45.5953 93.6909 46.2836 93.6909 47.175V79.022C93.6909 79.9148 93.9386 80.6017 94.3576 81.0452L94.4642 81.1489L112.304 63.3087V63.0985V62.8882L94.4642 45.0466L94.3576 45.1518Z" fill="url(#paint0_linear_10883_77292)"/>
<path d="M118.25 69.2575L112.304 63.3088V63.0986V62.8884L118.251 56.9412L118.385 57.0175L125.431 61.0207C127.443 62.164 127.443 64.0346 125.431 65.1794L118.385 69.1826L118.25 69.2575Z" fill="url(#paint1_linear_10883_77292)"/>
<g filter="url(#filter2_i_10883_77292)">
<path d="M118.386 69.1812L112.303 63.0986L94.3581 81.0454C95.0205 81.7481 96.1163 81.8345 97.3504 81.1346L118.386 69.1812Z" fill="url(#paint2_linear_10883_77292)"/>
</g>
<path d="M118.386 57.016L97.3504 45.064C96.1163 44.3627 95.0205 44.4506 94.3581 45.1533L112.305 63.1L118.386 57.016Z" fill="url(#paint3_linear_10883_77292)"/>
</g>
<defs>
<filter id="filter0_dddd_10883_77292" x="0.643764" y="0.491131" width="350.258" height="220.658" filterUnits="userSpaceOnUse" color-interpolation-filters="sRGB">
<feFlood flood-opacity="0" result="BackgroundImageFix"/>
<feColorMatrix in="SourceAlpha" type="matrix" values="0 0 0 0 0 0 0 0 0 0 0 0 0 0 0 0 0 0 127 0" result="hardAlpha"/>
<feOffset dy="2.15209"/>
<feGaussianBlur stdDeviation="1.66298"/>
<feColorMatrix type="matrix" values="0 0 0 0 0 0 0 0 0 0 0 0 0 0 0 0 0 0 0.0268173 0"/>
<feBlend mode="normal" in2="BackgroundImageFix" result="effect1_dropShadow_10883_77292"/>
<feColorMatrix in="SourceAlpha" type="matrix" values="0 0 0 0 0 0 0 0 0 0 0 0 0 0 0 0 0 0 127 0" result="hardAlpha"/>
<feOffset dy="5.95024"/>
<feGaussianBlur stdDeviation="4.59791"/>
<feColorMatrix type="matrix" values="0 0 0 0 0 0 0 0 0 0 0 0 0 0 0 0 0 0 0.0399899 0"/>
<feBlend mode="normal" in2="effect1_dropShadow_10883_77292" result="effect2_dropShadow_10883_77292"/>
<feColorMatrix in="SourceAlpha" type="matrix" values="0 0 0 0 0 0 0 0 0 0 0 0 0 0 0 0 0 0 127 0" result="hardAlpha"/>
<feOffset dy="14.3259"/>
<feGaussianBlur stdDeviation="11.07"/>
<feColorMatrix type="matrix" values="0 0 0 0 0 0 0 0 0 0 0 0 0 0 0 0 0 0 0.0582218 0"/>
<feBlend mode="normal" in2="effect2_dropShadow_10883_77292" result="effect3_dropShadow_10883_77292"/>
<feColorMatrix in="SourceAlpha" type="matrix" values="0 0 0 0 0 0 0 0 0 0 0 0 0 0 0 0 0 0 127 0" result="hardAlpha"/>
<feOffset dy="47.52"/>
<feGaussianBlur stdDeviation="36.72"/>
<feColorMatrix type="matrix" values="0 0 0 0 0 0 0 0 0 0 0 0 0 0 0 0 0 0 0.08 0"/>
<feBlend mode="normal" in2="effect3_dropShadow_10883_77292" result="effect4_dropShadow_10883_77292"/>
<feBlend mode="normal" in="SourceGraphic" in2="effect4_dropShadow_10883_77292" result="shape"/>
</filter>
<filter id="filter1_ii_10883_77292" x="93.6909" y="44.5801" width="33.2491" height="37.0378" filterUnits="userSpaceOnUse" color-interpolation-filters="sRGB">
<feFlood flood-opacity="0" result="BackgroundImageFix"/>
<feBlend mode="normal" in="SourceGraphic" in2="BackgroundImageFix" result="shape"/>
<feColorMatrix in="SourceAlpha" type="matrix" values="0 0 0 0 0 0 0 0 0 0 0 0 0 0 0 0 0 0 127 0" result="hardAlpha"/>
<feOffset dy="-0.216"/>
<feComposite in2="hardAlpha" operator="arithmetic" k2="-1" k3="1"/>
<feColorMatrix type="matrix" values="0 0 0 0 0 0 0 0 0 0 0 0 0 0 0 0 0 0 0.12 0"/>
<feBlend mode="normal" in2="shape" result="effect1_innerShadow_10883_77292"/>
<feColorMatrix in="SourceAlpha" type="matrix" values="0 0 0 0 0 0 0 0 0 0 0 0 0 0 0 0 0 0 127 0" result="hardAlpha"/>
<feOffset dy="0.216"/>
<feComposite in2="hardAlpha" operator="arithmetic" k2="-1" k3="1"/>
<feColorMatrix type="matrix" values="0 0 0 0 1 0 0 0 0 1 0 0 0 0 1 0 0 0 0.25 0"/>
<feBlend mode="normal" in2="effect1_innerShadow_10883_77292" result="effect2_innerShadow_10883_77292"/>
</filter>
<filter id="filter2_i_10883_77292" x="94.3581" y="63.0986" width="24.0278" height="18.5193" filterUnits="userSpaceOnUse" color-interpolation-filters="sRGB">
<feFlood flood-opacity="0" result="BackgroundImageFix"/>
<feBlend mode="normal" in="SourceGraphic" in2="BackgroundImageFix" result="shape"/>
<feColorMatrix in="SourceAlpha" type="matrix" values="0 0 0 0 0 0 0 0 0 0 0 0 0 0 0 0 0 0 127 0" result="hardAlpha"/>
<feOffset dy="-0.216"/>
<feComposite in2="hardAlpha" operator="arithmetic" k2="-1" k3="1"/>
<feColorMatrix type="matrix" values="0 0 0 0 0 0 0 0 0 0 0 0 0 0 0 0 0 0 0.08 0"/>
<feBlend mode="normal" in2="shape" result="effect1_innerShadow_10883_77292"/>
</filter>
<linearGradient id="paint0_linear_10883_77292" x1="110.723" y1="46.838" x2="86.5569" y2="71.0041" gradientUnits="userSpaceOnUse">
<stop stop-color="#00A0FF"/>
<stop offset="0.0066" stop-color="#00A1FF"/>
<stop offset="0.2601" stop-color="#00BEFF"/>
<stop offset="0.5122" stop-color="#00D2FF"/>
<stop offset="0.7604" stop-color="#00DFFF"/>
<stop offset="1" stop-color="#00E3FF"/>
</linearGradient>
<linearGradient id="paint1_linear_10883_77292" x1="128.05" y1="63.0986" x2="93.2078" y2="63.0986" gradientUnits="userSpaceOnUse">
<stop stop-color="#FFE000"/>
<stop offset="0.4087" stop-color="#FFBD00"/>
<stop offset="0.7754" stop-color="#FFA500"/>
<stop offset="1" stop-color="#FF9C00"/>
</linearGradient>
<linearGradient id="paint2_linear_10883_77292" x1="115.083" y1="66.4018" x2="82.3105" y2="99.1741" gradientUnits="userSpaceOnUse">
<stop stop-color="#FF3A44"/>
<stop offset="1" stop-color="#C31162"/>
</linearGradient>
<linearGradient id="paint3_linear_10883_77292" x1="89.8385" y1="34.5517" x2="104.472" y2="49.1855" gradientUnits="userSpaceOnUse">
<stop stop-color="#32A071"/>
<stop offset="0.0685" stop-color="#2DA771"/>
<stop offset="0.4762" stop-color="#15CF74"/>
<stop offset="0.8009" stop-color="#06E775"/>
<stop offset="1" stop-color="#00F076"/>
</linearGradient>
</defs>
</svg>
