<svg width="65" height="65" viewBox="0 0 65 65" fill="none" xmlns="http://www.w3.org/2000/svg">
<g clip-path="url(#clip0_10883_77164)">
<path d="M0.509155 21.7667C0.509155 14.1735 0.509155 10.3769 2.01031 7.48706C3.27532 5.05181 5.26092 3.06621 7.69616 1.8012C10.586 0.300049 14.3826 0.300049 21.9758 0.300049H43.0425C50.6357 0.300049 54.4323 0.300049 57.3222 1.8012C59.7574 3.06621 61.743 5.05181 63.008 7.48706C64.5092 10.3769 64.5092 14.1735 64.5092 21.7667V42.8334C64.5092 50.4266 64.5092 54.2232 63.008 57.113C61.743 59.5483 59.7574 61.5339 57.3222 62.7989C54.4323 64.3 50.6357 64.3 43.0425 64.3H21.9758C14.3826 64.3 10.586 64.3 7.69616 62.7989C5.26092 61.5339 3.27532 59.5483 2.01031 57.113C0.509155 54.2232 0.509155 50.4266 0.509155 42.8334V21.7667Z" fill="url(#paint0_radial_10883_77164)"/>
<path d="M0.509155 21.7667C0.509155 14.1735 0.509155 10.3769 2.01031 7.48706C3.27532 5.05181 5.26092 3.06621 7.69616 1.8012C10.586 0.300049 14.3826 0.300049 21.9758 0.300049H43.0425C50.6357 0.300049 54.4323 0.300049 57.3222 1.8012C59.7574 3.06621 61.743 5.05181 63.008 7.48706C64.5092 10.3769 64.5092 14.1735 64.5092 21.7667V42.8334C64.5092 50.4266 64.5092 54.2232 63.008 57.113C61.743 59.5483 59.7574 61.5339 57.3222 62.7989C54.4323 64.3 50.6357 64.3 43.0425 64.3H21.9758C14.3826 64.3 10.586 64.3 7.69616 62.7989C5.26092 61.5339 3.27532 59.5483 2.01031 57.113C0.509155 54.2232 0.509155 50.4266 0.509155 42.8334V21.7667Z" fill="url(#paint1_radial_10883_77164)"/>
<path d="M32.4737 9.02734C26.1534 9.02734 25.3602 9.05498 22.8778 9.16795C20.4003 9.2814 18.7092 9.67365 17.2295 10.2492C15.6989 10.8436 14.4005 11.6387 13.107 12.9328C11.8125 14.2264 11.0173 15.5248 10.421 17.055C9.84405 18.5352 9.45134 20.2269 9.33982 22.7035C9.2288 25.1859 9.19971 25.9796 9.19971 32.3001C9.19971 38.6206 9.22783 39.4113 9.34031 41.8938C9.45425 44.3713 9.84648 46.0625 10.4215 47.5423C11.0164 49.0729 11.8115 50.3713 13.1055 51.6649C14.3986 52.9595 15.697 53.7566 17.2266 54.351C18.7073 54.9265 20.3989 55.3187 22.8759 55.4322C25.3582 55.5452 26.151 55.5728 32.4708 55.5728C38.7915 55.5728 39.5823 55.5452 42.0647 55.4322C44.5422 55.3187 46.2352 54.9265 47.7159 54.351C49.246 53.7566 50.5425 52.9595 51.8355 51.6649C53.13 50.3713 53.9251 49.0729 54.5215 47.5427C55.0936 46.0625 55.4863 44.3709 55.6027 41.8943C55.7142 39.4118 55.7433 38.6206 55.7433 32.3001C55.7433 25.9796 55.7142 25.1864 55.6027 22.7039C55.4863 20.2264 55.0936 18.5352 54.5215 17.0555C53.9251 15.5248 53.13 14.2264 51.8355 12.9328C50.541 11.6383 49.2465 10.8431 47.7144 10.2492C46.2308 9.67365 44.5388 9.2814 42.0613 9.16795C39.5789 9.05498 38.7886 9.02734 32.4664 9.02734H32.4737ZM30.386 13.2213C31.0056 13.2203 31.697 13.2213 32.4737 13.2213C38.6873 13.2213 39.4238 13.2436 41.8775 13.3551C44.1465 13.4589 45.378 13.838 46.1983 14.1566C47.2844 14.5784 48.0587 15.0826 48.8727 15.8972C49.6872 16.7117 50.1914 17.4875 50.6142 18.5735C50.9327 19.3929 51.3124 20.6244 51.4156 22.8935C51.5272 25.3469 51.5514 26.0838 51.5514 32.2947C51.5514 38.5056 51.5272 39.2426 51.4156 41.6959C51.3119 43.965 50.9327 45.1966 50.6142 46.0159C50.1924 47.102 49.6872 47.8753 48.8727 48.6894C48.0582 49.5039 47.2849 50.0082 46.1983 50.43C45.379 50.75 44.1465 51.1282 41.8775 51.2319C39.4242 51.3435 38.6873 51.3677 32.4737 51.3677C26.2596 51.3677 25.5231 51.3435 23.0698 51.2319C20.8008 51.1272 19.5693 50.7481 18.7485 50.4295C17.6625 50.0077 16.8867 49.5035 16.0722 48.6889C15.2577 47.8744 14.7535 47.1006 14.3307 46.014C14.0122 45.1946 13.6325 43.9631 13.5293 41.694C13.4178 39.2407 13.3955 38.5037 13.3955 32.2889C13.3955 26.0741 13.4178 25.341 13.5293 22.8877C13.633 20.6186 14.0122 19.3871 14.3307 18.5667C14.7525 17.4807 15.2577 16.7049 16.0722 15.8904C16.8867 15.0758 17.6625 14.5716 18.7485 14.1488C19.5688 13.8288 20.8008 13.4506 23.0698 13.3464C25.2167 13.2494 26.0487 13.2203 30.386 13.2155V13.2213ZM44.8961 17.0855C43.3543 17.0855 42.1034 18.335 42.1034 19.8773C42.1034 21.4191 43.3543 22.67 44.8961 22.67C46.4379 22.67 47.6887 21.4191 47.6887 19.8773C47.6887 18.3355 46.4379 17.0846 44.8961 17.0846V17.0855ZM32.4737 20.3486C25.8736 20.3486 20.5225 25.6998 20.5225 32.3001C20.5225 38.9003 25.8736 44.2492 32.4737 44.2492C39.0737 44.2492 44.4229 38.9003 44.4229 32.3001C44.4229 25.6998 39.0732 20.3486 32.4732 20.3486H32.4737ZM32.4737 24.5425C36.7577 24.5425 40.231 28.0155 40.231 32.3001C40.231 36.5842 36.7577 40.0576 32.4737 40.0576C28.1892 40.0576 24.7163 36.5842 24.7163 32.3001C24.7163 28.0155 28.1892 24.5425 32.4737 24.5425Z" fill="white"/>
</g>
<defs>
<radialGradient id="paint0_radial_10883_77164" cx="0" cy="0" r="1" gradientUnits="userSpaceOnUse" gradientTransform="translate(17.5092 69.2294) rotate(-90) scale(63.4287 58.9937)">
<stop stop-color="#FFDD55"/>
<stop offset="0.1" stop-color="#FFDD55"/>
<stop offset="0.5" stop-color="#FF543E"/>
<stop offset="1" stop-color="#C837AB"/>
</radialGradient>
<radialGradient id="paint1_radial_10883_77164" cx="0" cy="0" r="1" gradientUnits="userSpaceOnUse" gradientTransform="translate(-10.2112 4.9105) rotate(78.6806) scale(28.3529 116.872)">
<stop stop-color="#3771C8"/>
<stop offset="0.128" stop-color="#3771C8"/>
<stop offset="1" stop-color="#6600FF" stop-opacity="0"/>
</radialGradient>
<clipPath id="clip0_10883_77164">
<rect width="64" height="64" fill="white" transform="translate(0.472656 0.300049)"/>
</clipPath>
</defs>
</svg>
