<svg width="44" height="44" viewBox="0 0 44 44" fill="none" xmlns="http://www.w3.org/2000/svg">
<path d="M37.2923 4.28247H6.96867C5.55719 4.28247 4.41309 5.42657 4.41309 6.83805V37.1617C4.41309 38.5732 5.55719 39.7173 6.96867 39.7173H37.2923C38.7038 39.7173 39.8479 38.5732 39.8479 37.1617V6.83805C39.8479 5.42657 38.7038 4.28247 37.2923 4.28247V4.28247ZM16.982 31.0662H12.667V18.0844H16.982V31.0662ZM14.8246 16.3118H14.7965C13.3486 16.3118 12.4121 15.315 12.4121 14.0693C12.4121 12.7954 13.3772 11.8262 14.8533 11.8262C16.3294 11.8262 17.2378 12.7954 17.2659 14.0693C17.2659 15.315 16.3294 16.3118 14.8246 16.3118ZM32.541 31.0662H28.2265V24.1213C28.2265 22.3759 27.6017 21.1856 26.0405 21.1856C24.8485 21.1856 24.1386 21.9885 23.8266 22.7636C23.7125 23.041 23.6847 23.4286 23.6847 23.8166V31.0662H19.37C19.37 31.0662 19.4265 19.3024 19.37 18.0844H23.6847V19.9225C24.2581 19.038 25.2841 17.7798 27.5734 17.7798C30.4123 17.7798 32.541 19.6351 32.541 23.6225V31.0662Z" fill="#828282"/>
</svg>
