<svg width="104" height="42" viewBox="0 0 104 42" fill="none" xmlns="http://www.w3.org/2000/svg">
<path fill-rule="evenodd" clip-rule="evenodd" d="M20.8212 40.6474C31.8262 40.6474 40.7476 31.726 40.7476 20.7209C40.7476 9.71582 31.8262 0.794434 20.8212 0.794434C9.81607 0.794434 0.894686 9.71582 0.894686 20.7209C0.894686 24.354 1.867 27.7601 3.56561 30.693L0 41.3898L10.9145 38.0142C13.8326 39.6895 17.215 40.6474 20.8212 40.6474ZM20.8196 36.0649C29.1611 36.0649 35.9231 29.3028 35.9231 20.9614C35.9231 17.3535 34.6581 14.041 32.5473 11.4434C32.5019 11.33 32.4214 11.2317 32.3157 11.1652C29.5454 7.91737 25.423 5.85791 20.8196 5.85791C12.4782 5.85791 5.71613 12.62 5.71613 20.9614C5.71613 27.1434 9.43019 32.4578 14.7487 34.7952C14.8374 34.8686 14.9436 34.9123 15.0533 34.9251C16.8301 35.6596 18.7775 36.0649 20.8196 36.0649ZM15.0533 34.9251C15.2087 34.9433 15.371 34.8995 15.4998 34.7904C15.8092 34.5283 16.1145 34.268 16.4159 34.0093C16.6612 33.7987 16.6893 33.4291 16.4787 33.1838C16.2681 32.9385 15.8985 32.9104 15.6532 33.121C15.354 33.3779 15.0506 33.6365 14.7431 33.897C14.4963 34.106 14.4658 34.4753 14.6747 34.7221C14.6976 34.749 14.7223 34.7734 14.7487 34.7952C14.8497 34.8396 14.9512 34.8829 15.0533 34.9251ZM32.3157 11.1652C32.2654 11.1336 32.2095 11.1091 32.1489 11.0936C31.8357 11.0134 31.5168 11.2023 31.4366 11.5155C31.3383 11.8995 31.2338 12.278 31.1232 12.6515C31.0314 12.9614 31.2083 13.2872 31.5183 13.379C31.8282 13.4708 32.154 13.294 32.2458 12.984C32.3606 12.5964 32.4689 12.2038 32.5708 11.8059C32.6029 11.6808 32.5919 11.5548 32.5473 11.4434C32.4712 11.3498 32.394 11.257 32.3157 11.1652ZM29.195 8.53072C29.8215 8.69096 30.1994 9.32871 30.0392 9.95516C27.7116 19.0542 21.9559 25.2271 12.9044 32.7503C12.4072 33.1637 11.669 33.0956 11.2556 32.5983C10.8423 32.101 10.9104 31.3629 11.4077 30.9495C20.3868 23.4864 25.6367 17.7169 27.7706 9.37486C27.9308 8.74841 28.5686 8.37047 29.195 8.53072ZM31.4618 15.2976C31.5775 14.9957 31.4266 14.6572 31.1247 14.5414C30.8228 14.4257 30.4843 14.5766 30.3686 14.8785C30.0862 15.6153 29.7768 16.334 29.4402 17.0379C29.3008 17.3296 29.4242 17.6791 29.7159 17.8186C30.0076 17.958 30.3571 17.8346 30.4965 17.5429C30.8465 16.811 31.1682 16.0636 31.4618 15.2976ZM29.3573 19.704C29.5189 19.424 29.423 19.066 29.1431 18.9043C28.8631 18.7426 28.505 18.8385 28.3434 19.1185C27.9536 19.7934 27.5364 20.4575 27.0914 21.1141C26.91 21.3817 26.98 21.7457 27.2476 21.9271C27.5152 22.1085 27.8792 22.0386 28.0606 21.7709C28.5207 21.0922 28.9529 20.4043 29.3573 19.704ZM26.6297 23.7409C26.8277 23.4854 26.7811 23.1177 26.5255 22.9196C26.27 22.7216 25.9023 22.7682 25.7042 23.0237C25.2296 23.6362 24.7295 24.2448 24.2037 24.8523C23.9921 25.0968 24.0187 25.4665 24.2632 25.678C24.5077 25.8896 24.8774 25.863 25.089 25.6185C25.6276 24.9962 26.1412 24.3713 26.6297 23.7409ZM23.4606 27.4142C23.6829 27.1795 23.6728 26.809 23.438 26.5867C23.2033 26.3643 22.8328 26.3744 22.6104 26.6092C22.0771 27.1723 21.5216 27.7367 20.9435 28.3047C20.7129 28.5312 20.7096 28.9019 20.9362 29.1325C21.1628 29.3631 21.5334 29.3664 21.764 29.1398C22.3512 28.563 22.9167 27.9885 23.4606 27.4142ZM20.0173 30.8058C20.2543 30.5859 20.2681 30.2155 20.0482 29.9785C19.8283 29.7415 19.4579 29.7277 19.2209 29.9476C18.651 30.4765 18.0621 31.0101 17.4541 31.5499C17.2123 31.7646 17.1904 32.1346 17.405 32.3764C17.6197 32.6181 17.9897 32.6401 18.2315 32.4254C18.8452 31.8805 19.4405 31.3412 20.0173 30.8058ZM26.0103 6.78309C26.3235 6.86312 26.5126 7.18194 26.4326 7.49519C26.3326 7.88632 26.226 8.27209 26.1126 8.65286C26.0203 8.96272 25.6943 9.1391 25.3844 9.04681C25.0746 8.95453 24.8982 8.62852 24.9905 8.31866C25.0994 7.95277 25.202 7.58179 25.2982 7.20536C25.3782 6.89211 25.697 6.70305 26.0103 6.78309ZM25.0011 10.1661C25.3023 10.2835 25.4513 10.6229 25.3339 10.9241C25.0412 11.6751 24.7193 12.4071 24.3682 13.1236C24.226 13.414 23.8753 13.534 23.585 13.3917C23.2946 13.2495 23.1746 12.8988 23.3168 12.6085C23.6536 11.9211 23.9623 11.2191 24.243 10.4989C24.3605 10.1977 24.6998 10.0487 25.0011 10.1661ZM23.0207 14.4319C23.2985 14.5973 23.3897 14.9565 23.2244 15.2344C22.8184 15.9164 22.3839 16.586 21.9209 17.2463C21.7353 17.511 21.3702 17.5751 21.1055 17.3895C20.8408 17.2038 20.7767 16.8388 20.9623 16.5741C21.4094 15.9366 21.8279 15.2915 22.2183 14.6356C22.3836 14.3577 22.7429 14.2666 23.0207 14.4319ZM20.3929 18.3347C20.6449 18.5373 20.6849 18.9058 20.4824 19.1577C19.9921 19.7675 19.4764 20.3718 18.9354 20.9732C18.7191 21.2136 18.349 21.2331 18.1086 21.0169C17.8683 20.8007 17.8487 20.4305 18.0649 20.1902C18.5926 19.6036 19.0942 19.0158 19.5699 18.4241C19.7725 18.1722 20.1409 18.1321 20.3929 18.3347ZM17.2963 21.8768C17.5266 22.1038 17.5293 22.4744 17.3023 22.7047C16.7574 23.2575 16.1907 23.8104 15.6023 24.3653C15.3671 24.5871 14.9966 24.5763 14.7748 24.3411C14.5529 24.1059 14.5638 23.7354 14.799 23.5135C15.3781 22.9675 15.9345 22.4246 16.4684 21.8828C16.6954 21.6525 17.066 21.6499 17.2963 21.8768ZM13.9025 25.1384C14.1175 25.3799 14.096 25.75 13.8545 25.9649C13.2775 26.4786 12.6822 26.9958 12.0684 27.5182C11.8222 27.7278 11.4527 27.6981 11.2432 27.4519C11.0336 27.2057 11.0633 26.8363 11.3095 26.6267C11.9174 26.1092 12.5062 25.5977 13.076 25.0905C13.3175 24.8755 13.6875 24.897 13.9025 25.1384ZM10.3341 28.2114C10.5395 28.4611 10.5036 28.83 10.2539 29.0354C9.9528 29.2831 9.64774 29.5323 9.33868 29.7831C9.08763 29.9868 8.71896 29.9484 8.51524 29.6974C8.31152 29.4463 8.34988 29.0776 8.60093 28.8739C8.9081 28.6247 9.21114 28.3772 9.51005 28.1313C9.75974 27.9259 10.1287 27.9618 10.3341 28.2114Z" fill="#08E7F8"/>
<path d="M44.7959 32.0005V22.1443H41.6278V19.5294H44.7959V17.2162C44.7959 16.3613 45.0473 15.6825 45.5502 15.1796C46.0698 14.66 46.7403 14.4002 47.5617 14.4002H50.8303V17.0151H48.668C48.1986 17.0151 47.964 17.2665 47.964 17.7694V19.5294H50.4783V22.1443H47.964V32.0005H44.7959ZM52.9926 32.0005V22.1443H50.4783V19.5294H52.9926V17.2162C52.9926 16.3613 53.2441 15.6825 53.7469 15.1796C54.2666 14.66 54.9371 14.4002 55.7584 14.4002H59.027V17.0151H56.8647C56.3954 17.0151 56.1607 17.2665 56.1607 17.7694V19.5294H59.4293V22.1443H56.1607V32.0005H52.9926ZM64.9561 32.3525C63.3302 32.3525 61.9976 32.0005 60.9584 31.2965C59.9191 30.5925 59.2905 29.5867 59.0726 28.2793L61.9892 27.525C62.1066 28.1117 62.2993 28.5726 62.5675 28.9079C62.8525 29.2431 63.1961 29.4862 63.5984 29.637C64.0175 29.7711 64.47 29.8382 64.9561 29.8382C65.6937 29.8382 66.2385 29.7124 66.5905 29.461C66.9425 29.1928 67.1185 28.866 67.1185 28.4804C67.1185 28.0949 66.9509 27.8016 66.6156 27.6004C66.2804 27.3825 65.744 27.2065 65.0064 27.0724L64.3024 26.9467C63.4308 26.7791 62.6346 26.5528 61.9138 26.2678C61.193 25.9661 60.6147 25.5554 60.1789 25.0358C59.7431 24.5162 59.5252 23.8457 59.5252 23.0243C59.5252 21.7839 59.9778 20.8368 60.8829 20.1831C61.7881 19.5126 62.9782 19.1774 64.4533 19.1774C65.8445 19.1774 67.0011 19.4875 67.9231 20.1077C68.845 20.7279 69.4484 21.5409 69.7334 22.5466L66.7916 23.4518C66.6575 22.8148 66.3809 22.3622 65.9619 22.094C65.5596 21.8258 65.0567 21.6917 64.4533 21.6917C63.8498 21.6917 63.3889 21.8007 63.0704 22.0186C62.7519 22.2197 62.5927 22.5047 62.5927 22.8735C62.5927 23.2758 62.7603 23.5775 63.0955 23.7786C63.4308 23.963 63.8834 24.1055 64.4533 24.2061L65.1573 24.3318C66.096 24.4994 66.9425 24.7257 67.6968 25.0106C68.4678 25.2788 69.0713 25.6727 69.5071 26.1924C69.9597 26.6952 70.186 27.3825 70.186 28.2541C70.186 29.5616 69.7082 30.5757 68.7528 31.2965C67.8141 32.0005 66.5486 32.3525 64.9561 32.3525ZM70.9507 32.0005V19.5294H74.1187V32.0005H70.9507ZM72.5347 18.0711C71.9648 18.0711 71.4787 17.8867 71.0764 17.5179C70.6909 17.1492 70.4981 16.6631 70.4981 16.0596C70.4981 15.4562 70.6909 14.9701 71.0764 14.6013C71.4787 14.2325 71.9648 14.0481 72.5347 14.0481C73.1214 14.0481 73.6075 14.2325 73.993 14.6013C74.3785 14.9701 74.5713 15.4562 74.5713 16.0596C74.5713 16.6631 74.3785 17.1492 73.993 17.5179C73.6075 17.8867 73.1214 18.0711 72.5347 18.0711ZM80.6466 32.3525C79.6576 32.3525 78.7273 32.1094 77.8557 31.6233C77.0008 31.1205 76.3135 30.3913 75.7939 29.4359C75.2743 28.4804 75.0145 27.3238 75.0145 25.9661V25.5638C75.0145 24.2061 75.2743 23.0495 75.7939 22.094C76.3135 21.1386 77.0008 20.4178 77.8557 19.9317C78.7105 19.4288 79.6408 19.1774 80.6466 19.1774C81.4009 19.1774 82.0295 19.2696 82.5323 19.454C83.052 19.6216 83.471 19.8395 83.7895 20.1077C84.108 20.3759 84.351 20.6608 84.5186 20.9626H84.9712V14.4002H88.1393V32.0005H85.0215V30.4919H84.5689C84.284 30.9612 83.8398 31.3887 83.2363 31.7742C82.6497 32.1597 81.7864 32.3525 80.6466 32.3525ZM81.602 29.5867C82.5742 29.5867 83.3872 29.2766 84.0409 28.6564C84.6947 28.0195 85.0215 27.0975 85.0215 25.8907V25.6392C85.0215 24.4323 84.6947 23.5188 84.0409 22.8986C83.404 22.2616 82.591 21.9432 81.602 21.9432C80.6298 21.9432 79.8168 22.2616 79.1631 22.8986C78.5094 23.5188 78.1825 24.4323 78.1825 25.6392V25.8907C78.1825 27.0975 78.5094 28.0195 79.1631 28.6564C79.8168 29.2766 80.6298 29.5867 81.602 29.5867ZM95.3226 32.3525C94.0822 32.3525 92.9843 32.0927 92.0288 31.5731C91.0902 31.0367 90.3526 30.2907 89.8162 29.3353C89.2966 28.3631 89.0368 27.2233 89.0368 25.9158V25.6141C89.0368 24.3066 89.2966 23.1752 89.8162 22.2197C90.3359 21.2475 91.065 20.5016 92.0037 19.982C92.9424 19.4456 94.0319 19.1774 95.2723 19.1774C96.496 19.1774 97.5604 19.454 98.4655 20.0071C99.3707 20.5435 100.075 21.2978 100.578 22.27C101.08 23.2255 101.332 24.3402 101.332 25.6141V26.6952H92.2551C92.2887 27.5501 92.6071 28.2457 93.2106 28.7821C93.814 29.3185 94.5516 29.5867 95.4232 29.5867C96.3116 29.5867 96.9653 29.394 97.3844 29.0084C97.8034 28.6229 98.1219 28.1955 98.3398 27.7261L100.93 29.0839C100.695 29.5197 100.351 29.9974 99.8987 30.517C99.4629 31.0199 98.8762 31.4557 98.1387 31.8245C97.4011 32.1765 96.4625 32.3525 95.3226 32.3525ZM92.2803 24.3318H98.1135C98.0465 23.611 97.7531 23.0327 97.2335 22.5969C96.7306 22.1611 96.0685 21.9432 95.2472 21.9432C94.3923 21.9432 93.7134 22.1611 93.2106 22.5969C92.7077 23.0327 92.3976 23.611 92.2803 24.3318Z" fill="#08E7F8"/>
</svg>
