<svg width="206" height="81" viewBox="0 0 206 81" fill="none" xmlns="http://www.w3.org/2000/svg">
<path fill-rule="evenodd" clip-rule="evenodd" d="M42.1032 79.1185C63.9501 79.1185 81.6605 61.4072 81.6605 39.5592C81.6605 17.7113 63.9501 0 42.1032 0C20.2564 0 2.54601 17.7113 2.54601 39.5592C2.54601 46.7744 4.47751 53.5384 7.85164 59.3623L0.772705 80.6002L22.4468 73.8965C28.2374 77.2189 34.9485 79.1185 42.1032 79.1185ZM42.1038 70.0256C58.6629 70.0256 72.0867 56.6011 72.0867 40.0412C72.0867 32.8801 69.5765 26.3054 65.388 21.149C65.2974 20.9201 65.1353 20.7221 64.9218 20.5891C59.4224 14.1436 51.2404 10.0568 42.1038 10.0568C25.5448 10.0568 12.121 23.4813 12.121 40.0412C12.121 52.3161 19.4965 62.8683 30.0575 67.5073C30.231 67.6494 30.4379 67.7345 30.6517 67.7606C34.1802 69.2202 38.048 70.0256 42.1038 70.0256ZM64.9218 20.5891C64.8232 20.5276 64.7136 20.48 64.5951 20.4497C63.9733 20.2905 63.3402 20.6655 63.181 21.2873C62.9859 22.0495 62.7785 22.8009 62.5589 23.5423C62.3766 24.1577 62.7278 24.8044 63.3432 24.9867C63.9586 25.169 64.6052 24.8179 64.7875 24.2025C65.0154 23.433 65.2305 22.6537 65.4327 21.8638C65.4958 21.6172 65.4749 21.3688 65.388 21.149C65.2348 20.9604 65.0794 20.7738 64.9218 20.5891ZM31.544 67.4939C31.2866 67.7119 30.962 67.7985 30.6517 67.7606C30.4525 67.6783 30.2545 67.5938 30.0575 67.5073C30.0035 67.4631 29.9528 67.4134 29.9061 67.3582C29.4912 66.8685 29.5519 66.1351 30.0417 65.7203C30.6522 65.2031 31.2544 64.6897 31.8485 64.1797C32.3355 63.7616 33.0692 63.8174 33.4873 64.3044C33.9054 64.7914 33.8496 65.5251 33.3626 65.9432C32.7644 66.4569 32.1581 66.9736 31.544 67.4939ZM58.7302 15.357C59.9738 15.6751 60.7241 16.9412 60.406 18.1848C55.7855 36.2488 44.3594 48.5035 26.3908 63.4391C25.4036 64.2597 23.9382 64.1246 23.1176 63.1374C22.2971 62.1502 22.4321 60.6847 23.4193 59.8641C41.2444 45.0478 51.6663 33.5939 55.9024 17.0327C56.2205 15.7891 57.4865 15.0388 58.7302 15.357ZM63.2312 28.7956C63.4609 28.1963 63.1613 27.5242 62.562 27.2944C61.9627 27.0647 61.2906 27.3643 61.0609 27.9636C60.5002 29.4262 59.8861 30.853 59.2179 32.2506C58.9411 32.8297 59.1861 33.5235 59.7652 33.8004C60.3443 34.0772 61.0381 33.8322 61.315 33.2531C62.0096 31.8 62.6482 30.3164 63.2312 28.7956ZM59.0533 37.5434C59.3743 36.9876 59.1839 36.2768 58.628 35.9558C58.0722 35.6349 57.3614 35.8253 57.0405 36.3811C56.2668 37.721 55.4386 39.0394 54.5552 40.3428C54.1952 40.8741 54.334 41.5967 54.8653 41.9568C55.3966 42.3169 56.1192 42.1781 56.4793 41.6468C57.3926 40.2993 58.2505 38.9337 59.0533 37.5434ZM53.6386 45.5577C54.0318 45.0504 53.9392 44.3204 53.4319 43.9272C52.9245 43.5341 52.1945 43.6266 51.8014 44.134C50.8592 45.3499 49.8665 46.5581 48.8226 47.7641C48.4026 48.2494 48.4555 48.9834 48.9408 49.4034C49.4261 49.8235 50.1601 49.7706 50.5801 49.2853C51.6494 48.0498 52.6689 46.8091 53.6386 45.5577ZM47.3475 52.8502C47.7888 52.3842 47.7687 51.6486 47.3027 51.2073C46.8367 50.7659 46.1011 50.786 45.6598 51.252C44.6011 52.37 43.4982 53.4905 42.3506 54.618C41.8928 55.0678 41.8863 55.8036 42.3361 56.2615C42.786 56.7193 43.5218 56.7258 43.9796 56.276C45.1452 55.1308 46.2678 53.9903 47.3475 52.8502ZM40.5121 59.5834C40.9825 59.1468 41.0099 58.4115 40.5733 57.941C40.1367 57.4706 39.4014 57.4431 38.9309 57.8798C37.7996 58.9298 36.6306 59.9889 35.4235 61.0607C34.9436 61.4869 34.9 62.2214 35.3262 62.7014C35.7523 63.1813 36.4869 63.2249 36.9668 62.7988C38.1852 61.717 39.3669 60.6463 40.5121 59.5834ZM52.4026 11.8975C53.0245 12.0563 53.3998 12.6893 53.2409 13.3111C53.0425 14.0876 52.8308 14.8535 52.6057 15.6094C52.4225 16.2245 51.7753 16.5747 51.1602 16.3915C50.545 16.2083 50.1949 15.5611 50.3781 14.9459C50.5944 14.2195 50.798 13.4831 50.9889 12.7357C51.1478 12.1139 51.7807 11.7386 52.4026 11.8975ZM50.3992 18.6135C50.9972 18.8467 51.293 19.5204 51.0599 20.1185C50.4788 21.6092 49.8399 23.0626 49.1429 24.485C48.8605 25.0614 48.1643 25.2997 47.588 25.0172C47.0116 24.7348 46.7733 24.0386 47.0557 23.4623C47.7243 22.0977 48.337 20.7039 48.8943 19.2742C49.1274 18.6762 49.8012 18.3804 50.3992 18.6135ZM46.4679 27.0823C47.0194 27.4105 47.2004 28.1237 46.8722 28.6753C46.0663 30.0294 45.2038 31.3586 44.2847 32.6695C43.9162 33.195 43.1914 33.3223 42.6659 32.9538C42.1404 32.5853 42.0131 31.8605 42.3816 31.335C43.2691 30.0694 44.0999 28.7887 44.8748 27.4866C45.2031 26.935 45.9163 26.754 46.4679 27.0823ZM41.2513 34.8303C41.7515 35.2324 41.831 35.964 41.4289 36.4642C40.4557 37.6748 39.432 38.8744 38.3578 40.0684C37.9286 40.5456 37.1938 40.5844 36.7166 40.1552C36.2394 39.7259 36.2006 38.9911 36.6298 38.5139C37.6774 37.3494 38.673 36.1825 39.6174 35.0078C40.0195 34.5076 40.7511 34.4281 41.2513 34.8303ZM35.104 41.8623C35.5612 42.3129 35.5665 43.0487 35.116 43.5058C34.0343 44.6034 32.9093 45.701 31.7412 46.8027C31.2743 47.243 30.5387 47.2215 30.0984 46.7545C29.658 46.2876 29.6795 45.5521 30.1464 45.1117C31.296 44.0276 32.4005 42.9498 33.4605 41.8743C33.9111 41.4171 34.6469 41.4118 35.104 41.8623ZM28.3667 48.3376C28.7935 48.817 28.7509 49.5516 28.2715 49.9783C27.1261 50.998 25.9442 52.0249 24.7258 53.0621C24.2371 53.4781 23.5036 53.4192 23.0876 52.9304C22.6715 52.4417 22.7304 51.7082 23.2192 51.2921C24.426 50.2648 25.5948 49.2493 26.7259 48.2423C27.2053 47.8155 27.9399 47.8582 28.3667 48.3376ZM21.2828 54.4383C21.6905 54.934 21.6193 55.6663 21.1237 56.0741C20.526 56.5658 19.9204 57.0604 19.3068 57.5583C18.8085 57.9628 18.0766 57.8866 17.6721 57.3882C17.2677 56.8899 17.3438 56.158 17.8422 55.7535C18.452 55.2587 19.0536 54.7673 19.647 54.2791C20.1426 53.8714 20.875 53.9426 21.2828 54.4383Z" fill="#07E7F7"/>
<path d="M89.7002 61.3433V41.7767H83.4109V36.5855H89.7002V31.9934C89.7002 30.2962 90.1994 28.9485 91.1977 27.9503C92.2292 26.9187 93.5603 26.4029 95.1908 26.4029H101.68V31.594H97.3871C96.4553 31.594 95.9895 32.0932 95.9895 33.0915V36.5855H100.981V41.7767H95.9895V61.3433H89.7002ZM105.972 61.3433V41.7767H100.981V36.5855H105.972V31.9934C105.972 30.2962 106.472 28.9485 107.47 27.9503C108.501 26.9187 109.833 26.4029 111.463 26.4029H117.952V31.594H113.659C112.728 31.594 112.262 32.0932 112.262 33.0915V36.5855H118.751V41.7767H112.262V61.3433H105.972ZM129.723 62.0421C126.495 62.0421 123.849 61.3433 121.786 59.9456C119.723 58.548 118.475 56.5514 118.042 53.9559L123.833 52.4584C124.066 53.6231 124.448 54.5382 124.981 55.2037C125.546 55.8693 126.228 56.3518 127.027 56.6513C127.859 56.9175 128.758 57.0506 129.723 57.0506C131.187 57.0506 132.268 56.801 132.967 56.3019C133.666 55.7694 134.015 55.1205 134.015 54.3552C134.015 53.5898 133.682 53.0075 133.017 52.6082C132.351 52.1756 131.287 51.8262 129.822 51.56L128.425 51.3104C126.694 50.9776 125.114 50.5284 123.683 49.9627C122.252 49.3637 121.104 48.5484 120.239 47.5169C119.374 46.4853 118.941 45.1542 118.941 43.5237C118.941 41.0612 119.839 39.1811 121.636 37.8833C123.433 36.5522 125.796 35.8867 128.724 35.8867C131.486 35.8867 133.782 36.5023 135.612 37.7336C137.443 38.9648 138.641 40.5787 139.206 42.5753L133.366 44.3722C133.1 43.1077 132.551 42.2093 131.719 41.6768C130.92 41.1444 129.922 40.8782 128.724 40.8782C127.526 40.8782 126.611 41.0945 125.979 41.5271C125.347 41.9264 125.031 42.4921 125.031 43.2242C125.031 44.0228 125.363 44.6218 126.029 45.0211C126.694 45.3872 127.593 45.67 128.724 45.8697L130.122 46.1192C131.985 46.452 133.666 46.9012 135.163 47.4669C136.694 47.9994 137.892 48.7814 138.757 49.8129C139.656 50.8112 140.105 52.1756 140.105 53.906C140.105 56.5015 139.156 58.5148 137.26 59.9456C135.396 61.3433 132.884 62.0421 129.723 62.0421ZM141.623 61.3433V36.5855H147.912V61.3433H141.623ZM144.768 33.6905C143.636 33.6905 142.671 33.3244 141.872 32.5923C141.107 31.8602 140.724 30.8952 140.724 29.6973C140.724 28.4993 141.107 27.5343 141.872 26.8022C142.671 26.0701 143.636 25.7041 144.768 25.7041C145.932 25.7041 146.897 26.0701 147.663 26.8022C148.428 27.5343 148.811 28.4993 148.811 29.6973C148.811 30.8952 148.428 31.8602 147.663 32.5923C146.897 33.3244 145.932 33.6905 144.768 33.6905ZM160.871 62.0421C158.908 62.0421 157.061 61.5596 155.331 60.5945C153.634 59.5962 152.269 58.1487 151.238 56.252C150.206 54.3552 149.69 52.0591 149.69 49.3637V48.5651C149.69 45.8697 150.206 43.5736 151.238 41.6768C152.269 39.7801 153.634 38.3492 155.331 37.3842C157.028 36.3859 158.875 35.8867 160.871 35.8867C162.369 35.8867 163.617 36.0697 164.615 36.4358C165.647 36.7685 166.478 37.2011 167.111 37.7336C167.743 38.266 168.225 38.8317 168.558 39.4307H169.457V26.4029H175.746V61.3433H169.557V58.3484H168.658C168.092 59.2801 167.211 60.1287 166.013 60.894C164.848 61.6594 163.134 62.0421 160.871 62.0421ZM162.768 56.5514C164.698 56.5514 166.312 55.9358 167.61 54.7046C168.908 53.4401 169.557 51.6099 169.557 49.214V48.7148C169.557 46.3189 168.908 44.5053 167.61 43.2741C166.345 42.0096 164.731 41.3773 162.768 41.3773C160.838 41.3773 159.224 42.0096 157.926 43.2741C156.629 44.5053 155.98 46.3189 155.98 48.7148V49.214C155.98 51.6099 156.629 53.4401 157.926 54.7046C159.224 55.9358 160.838 56.5514 162.768 56.5514ZM190.006 62.0421C187.544 62.0421 185.364 61.5263 183.468 60.4947C181.604 59.4299 180.14 57.9491 179.075 56.0523C178.043 54.1223 177.528 51.8594 177.528 49.2639V48.6649C177.528 46.0693 178.043 43.8232 179.075 41.9264C180.107 39.9964 181.554 38.5156 183.418 37.484C185.281 36.4191 187.444 35.8867 189.907 35.8867C192.336 35.8867 194.449 36.4358 196.246 37.5339C198.043 38.5987 199.44 40.0962 200.439 42.0262C201.437 43.923 201.936 46.1359 201.936 48.6649V50.8112H183.917C183.983 52.5083 184.616 53.8893 185.814 54.9542C187.011 56.019 188.476 56.5514 190.206 56.5514C191.97 56.5514 193.267 56.1688 194.099 55.4034C194.931 54.638 195.564 53.7895 195.996 52.8577L201.137 55.5531C200.671 56.4183 199.989 57.3667 199.091 58.3983C198.226 59.3966 197.061 60.2618 195.597 60.9939C194.133 61.6927 192.269 62.0421 190.006 62.0421ZM183.967 46.1192H195.547C195.414 44.6884 194.831 43.5403 193.8 42.6751C192.802 41.8099 191.487 41.3773 189.857 41.3773C188.16 41.3773 186.812 41.8099 185.814 42.6751C184.815 43.5403 184.2 44.6884 183.967 46.1192Z" fill="#07E7F7"/>
</svg>
