<svg width="423" height="258" viewBox="0 0 423 258" fill="none" xmlns="http://www.w3.org/2000/svg">
<g filter="url(#filter0_dddd_10883_77074)">
<rect x="86.8652" y="31.312" width="249.37" height="84.238" rx="21.4229" fill="white"/>
</g>
<path d="M179.644 62.7446V61.2518H184.462V65.9C183.359 67.0196 181.527 67.7321 179.881 67.7321C176.607 67.7321 173.808 64.967 173.808 61.6929C173.808 58.4187 176.607 55.6705 179.881 55.6705C181.527 55.6705 183.359 56.3661 184.462 57.5027L183.257 58.6562C182.46 57.7911 181.086 57.2482 179.881 57.2482C177.54 57.2482 175.572 59.2839 175.572 61.6929C175.572 64.1187 177.54 66.1545 179.881 66.1545C180.865 66.1545 181.968 65.7982 182.765 65.1875V62.7446H179.644ZM190.86 66.2393C191.776 66.2393 192.844 65.8321 193.37 65.2893L194.422 66.375C193.642 67.2062 192.115 67.7321 190.877 67.7321C188.434 67.7321 186.364 65.8152 186.364 63.1179C186.364 60.4884 188.315 58.5545 190.741 58.5545C193.421 58.5545 194.965 60.5902 194.965 63.7286H188.061C188.281 65.1875 189.35 66.2393 190.86 66.2393ZM190.809 60.0473C189.452 60.0473 188.349 60.9634 188.078 62.3884H193.336C193.15 61.0312 192.319 60.0473 190.809 60.0473ZM201.017 65.9509L201.628 67.1045C201.153 67.4946 200.508 67.7321 199.88 67.7321C198.523 67.7321 197.573 66.7482 197.573 65.3402V60.183H196.25V58.758H197.573V56.3491H199.219V58.758H201.288V60.183H199.219V65.2214C199.219 65.8321 199.626 66.2732 200.118 66.2732C200.491 66.2732 200.83 66.1375 201.017 65.9509ZM209.025 57.2991C208.448 57.2991 208.007 56.8241 208.007 56.2812C208.007 55.7554 208.448 55.2804 209.025 55.2804C209.568 55.2804 210.026 55.7554 210.026 56.2812C210.026 56.8241 209.568 57.2991 209.025 57.2991ZM208.177 67.5286V58.758H209.856V67.5286H208.177ZM216.391 65.9509L217.002 67.1045C216.527 67.4946 215.882 67.7321 215.254 67.7321C213.897 67.7321 212.947 66.7482 212.947 65.3402V60.183H211.624V58.758H212.947V56.3491H214.593V58.758H216.662V60.183H214.593V65.2214C214.593 65.8321 215 66.2732 215.492 66.2732C215.865 66.2732 216.204 66.1375 216.391 65.9509ZM229.217 67.7321C225.942 67.7321 223.16 64.967 223.16 61.6929C223.16 58.4187 225.942 55.6705 229.217 55.6705C232.491 55.6705 235.239 58.4187 235.239 61.6929C235.239 64.967 232.491 67.7321 229.217 67.7321ZM229.217 66.1545C231.541 66.1545 233.492 64.1187 233.492 61.6929C233.492 59.2839 231.541 57.2482 229.217 57.2482C226.892 57.2482 224.925 59.2839 224.925 61.6929C224.925 64.1187 226.892 66.1545 229.217 66.1545ZM241.746 58.5545C243.68 58.5545 245.037 59.9625 245.037 61.9473V67.5286H243.392V62.2357C243.392 60.9295 242.561 60.0134 241.373 60.0134C240.152 60.0134 239.1 60.8107 238.964 61.8455V67.5286H237.285V58.758H238.964V60.0304C239.49 59.1652 240.559 58.5545 241.746 58.5545Z" fill="#1B1B1B"/>
<path d="M182.09 82.9527V80.2214H189.31V86.9427C187.671 88.6527 185.154 89.6739 182.707 89.6739C177.981 89.6739 173.967 85.8027 173.967 81.2189C173.967 76.6352 177.981 72.7877 182.707 72.7877C185.154 72.7877 187.671 73.8089 189.31 75.5189L186.769 77.7989C185.795 76.6827 184.204 75.9702 182.707 75.9702C179.929 75.9702 177.577 78.3927 177.577 81.2189C177.577 84.0689 179.929 86.4914 182.707 86.4914C183.824 86.4914 184.964 86.1114 185.89 85.4464V82.9527H182.09ZM198.196 89.6739C194.539 89.6739 191.475 86.7289 191.475 83.2377C191.475 79.7464 194.539 76.8252 198.196 76.8252C201.83 76.8252 204.87 79.7464 204.87 83.2377C204.87 86.7289 201.83 89.6739 198.196 89.6739ZM198.196 86.7527C200.025 86.7527 201.569 85.1377 201.569 83.2377C201.569 81.3377 200.025 79.7464 198.196 79.7464C196.344 79.7464 194.8 81.3377 194.8 83.2377C194.8 85.1377 196.344 86.7527 198.196 86.7527ZM213.249 89.6739C209.591 89.6739 206.528 86.7289 206.528 83.2377C206.528 79.7464 209.591 76.8252 213.249 76.8252C216.883 76.8252 219.923 79.7464 219.923 83.2377C219.923 86.7289 216.883 89.6739 213.249 89.6739ZM213.249 86.7527C215.078 86.7527 216.621 85.1377 216.621 83.2377C216.621 81.3377 215.078 79.7464 213.249 79.7464C211.396 79.7464 209.853 81.3377 209.853 83.2377C209.853 85.1377 211.396 86.7527 213.249 86.7527ZM231.151 77.1102H234.642V88.0827C234.642 91.2414 231.911 93.4739 228.04 93.4739C225.879 93.4739 223.836 92.7852 222.625 91.8352L223.836 89.3889C224.644 90.1014 226.069 90.5527 227.494 90.5527C229.726 90.5527 231.151 89.5314 231.151 87.9402V86.5864C230.177 87.7739 228.705 88.4864 227.09 88.4864C224.002 88.4864 221.651 86.0639 221.651 82.6439C221.651 79.2239 224.002 76.8252 227.09 76.8252C228.752 76.8252 230.32 77.6089 231.151 78.7727V77.1102ZM228.182 85.5652C229.916 85.5652 231.151 84.3539 231.151 82.6439C231.151 80.9339 229.916 79.7464 228.182 79.7464C226.449 79.7464 225.214 80.9339 225.214 82.6439C225.214 84.3539 226.449 85.5652 228.182 85.5652ZM237.692 89.3889V72.7877H241.16V89.3889H237.692ZM249.981 86.6102C250.955 86.6102 252.143 86.1589 252.808 85.5177L255.016 87.7739C253.924 88.9139 251.81 89.6739 250.005 89.6739C246.348 89.6739 243.498 86.9902 243.498 83.2139C243.498 79.5089 246.229 76.8252 249.815 76.8252C253.663 76.8252 255.919 79.7464 255.919 84.3777H247.06C247.464 85.7077 248.533 86.6102 249.981 86.6102ZM249.958 79.8889C248.651 79.8889 247.559 80.6489 247.108 81.8839H252.594C252.261 80.6727 251.359 79.8889 249.958 79.8889ZM264.993 89.3889V73.0727H272.332C275.871 73.0727 278.483 75.3527 278.483 78.5827C278.483 81.8127 275.871 84.0927 272.332 84.0927H268.484V89.3889H264.993ZM268.484 80.8864H271.952C273.686 80.8864 274.873 79.9839 274.873 78.5827C274.873 77.1814 273.686 76.2789 271.952 76.2789H268.484V80.8864ZM280.577 89.3889V72.7877H284.044V89.3889H280.577ZM292.557 76.8252C295.763 76.8252 297.948 78.8439 297.948 82.0502V89.3889H294.6V88.1539C293.721 89.1514 292.32 89.6739 290.99 89.6739C288.377 89.6739 286.358 88.1064 286.358 85.7552C286.358 83.3327 288.615 81.6702 291.465 81.6702C292.462 81.6702 293.555 81.8839 294.6 82.2877V82.0502C294.6 80.7439 293.792 79.6039 291.773 79.6039C290.633 79.6039 289.565 79.9839 288.591 80.4827L287.427 78.1789C289.161 77.3002 290.847 76.8252 292.557 76.8252ZM291.773 87.2752C293.103 87.2752 294.362 86.6577 294.6 85.5177V84.3777C293.816 84.0927 292.913 83.9264 291.963 83.9264C290.705 83.9264 289.707 84.6627 289.707 85.6602C289.707 86.6577 290.586 87.2752 291.773 87.2752ZM303.673 93.6639C302.652 93.6639 301.417 93.3552 300.586 92.9039L301.322 90.5289C301.916 90.8614 302.533 91.0752 302.937 91.0752C303.602 91.0752 304.125 90.8614 304.386 90.4102L304.813 89.5077L299.707 77.1102H303.293L306.523 85.7314L309.587 77.1102H313.126L308.091 90.0064C307.165 92.4052 305.597 93.6639 303.673 93.6639Z" fill="#1B1B1B"/>
<g filter="url(#filter1_ii_10883_77074)">
<path d="M121.757 52.9409C121.264 53.4598 120.972 54.2651 120.972 55.3079V92.5681C120.972 93.6127 121.264 94.4163 121.757 94.9352L121.882 95.0565L142.882 74.184V73.938V73.692L121.882 52.8179L121.757 52.9409Z" fill="black"/>
<path d="M149.879 81.1417L142.88 74.1819V73.936V73.69L149.881 66.7319L150.038 66.8212L158.332 71.5049C160.7 72.8426 160.7 75.0311 158.332 76.3704L150.038 81.0541L149.879 81.1417Z" fill="black"/>
<g filter="url(#filter2_i_10883_77074)">
<path d="M150.039 81.0515L142.879 73.9351L121.756 94.9322C122.536 95.7544 123.825 95.8555 125.278 95.0367L150.039 81.0515Z" fill="black"/>
</g>
<path d="M122.245 94.9181L142.879 74.407L149.489 80.9774L125.114 94.7451L122.245 94.9181ZM122.245 94.9181C122.901 95.3941 123.902 95.428 125.113 94.7452L122.245 94.9181Z" stroke="white" stroke-width="0.669467"/>
<path d="M121.756 52.9407L121.756 52.9407L121.756 52.9407L121.756 52.9407C121.756 52.9407 121.756 52.9407 121.756 52.9407ZM142.881 73.4658L122.245 52.9548C122.901 52.4783 123.903 52.4436 125.114 53.1277L125.114 53.1277L149.49 66.8939L142.881 73.4658Z" fill="black" stroke="white" stroke-width="0.669467"/>
</g>
<defs>
<filter id="filter0_dddd_10883_77074" x="0.42025" y="0.802017" width="422.26" height="257.128" filterUnits="userSpaceOnUse" color-interpolation-filters="sRGB">
<feFlood flood-opacity="0" result="BackgroundImageFix"/>
<feColorMatrix in="SourceAlpha" type="matrix" values="0 0 0 0 0 0 0 0 0 0 0 0 0 0 0 0 0 0 127 0" result="hardAlpha"/>
<feOffset dy="2.53318"/>
<feGaussianBlur stdDeviation="1.95746"/>
<feColorMatrix type="matrix" values="0 0 0 0 0 0 0 0 0 0 0 0 0 0 0 0 0 0 0.0268173 0"/>
<feBlend mode="normal" in2="BackgroundImageFix" result="effect1_dropShadow_10883_77074"/>
<feColorMatrix in="SourceAlpha" type="matrix" values="0 0 0 0 0 0 0 0 0 0 0 0 0 0 0 0 0 0 127 0" result="hardAlpha"/>
<feOffset dy="7.00393"/>
<feGaussianBlur stdDeviation="5.41213"/>
<feColorMatrix type="matrix" values="0 0 0 0 0 0 0 0 0 0 0 0 0 0 0 0 0 0 0.0399899 0"/>
<feBlend mode="normal" in2="effect1_dropShadow_10883_77074" result="effect2_dropShadow_10883_77074"/>
<feColorMatrix in="SourceAlpha" type="matrix" values="0 0 0 0 0 0 0 0 0 0 0 0 0 0 0 0 0 0 127 0" result="hardAlpha"/>
<feOffset dy="16.8628"/>
<feGaussianBlur stdDeviation="13.0303"/>
<feColorMatrix type="matrix" values="0 0 0 0 0 0 0 0 0 0 0 0 0 0 0 0 0 0 0.0582218 0"/>
<feBlend mode="normal" in2="effect2_dropShadow_10883_77074" result="effect3_dropShadow_10883_77074"/>
<feColorMatrix in="SourceAlpha" type="matrix" values="0 0 0 0 0 0 0 0 0 0 0 0 0 0 0 0 0 0 127 0" result="hardAlpha"/>
<feOffset dy="55.935"/>
<feGaussianBlur stdDeviation="43.2225"/>
<feColorMatrix type="matrix" values="0 0 0 0 0 0 0 0 0 0 0 0 0 0 0 0 0 0 0.08 0"/>
<feBlend mode="normal" in2="effect3_dropShadow_10883_77074" result="effect4_dropShadow_10883_77074"/>
<feBlend mode="normal" in="SourceGraphic" in2="effect4_dropShadow_10883_77074" result="shape"/>
</filter>
<filter id="filter1_ii_10883_77074" x="120.972" y="52.27" width="39.1357" height="43.3323" filterUnits="userSpaceOnUse" color-interpolation-filters="sRGB">
<feFlood flood-opacity="0" result="BackgroundImageFix"/>
<feBlend mode="normal" in="SourceGraphic" in2="BackgroundImageFix" result="shape"/>
<feColorMatrix in="SourceAlpha" type="matrix" values="0 0 0 0 0 0 0 0 0 0 0 0 0 0 0 0 0 0 127 0" result="hardAlpha"/>
<feOffset dy="-0.25425"/>
<feComposite in2="hardAlpha" operator="arithmetic" k2="-1" k3="1"/>
<feColorMatrix type="matrix" values="0 0 0 0 0 0 0 0 0 0 0 0 0 0 0 0 0 0 0.12 0"/>
<feBlend mode="normal" in2="shape" result="effect1_innerShadow_10883_77074"/>
<feColorMatrix in="SourceAlpha" type="matrix" values="0 0 0 0 0 0 0 0 0 0 0 0 0 0 0 0 0 0 127 0" result="hardAlpha"/>
<feOffset dy="0.25425"/>
<feComposite in2="hardAlpha" operator="arithmetic" k2="-1" k3="1"/>
<feColorMatrix type="matrix" values="0 0 0 0 1 0 0 0 0 1 0 0 0 0 1 0 0 0 0.25 0"/>
<feBlend mode="normal" in2="effect1_innerShadow_10883_77074" result="effect2_innerShadow_10883_77074"/>
</filter>
<filter id="filter2_i_10883_77074" x="121.756" y="73.9351" width="28.2827" height="21.6672" filterUnits="userSpaceOnUse" color-interpolation-filters="sRGB">
<feFlood flood-opacity="0" result="BackgroundImageFix"/>
<feBlend mode="normal" in="SourceGraphic" in2="BackgroundImageFix" result="shape"/>
<feColorMatrix in="SourceAlpha" type="matrix" values="0 0 0 0 0 0 0 0 0 0 0 0 0 0 0 0 0 0 127 0" result="hardAlpha"/>
<feOffset dy="-0.25425"/>
<feComposite in2="hardAlpha" operator="arithmetic" k2="-1" k3="1"/>
<feColorMatrix type="matrix" values="0 0 0 0 0 0 0 0 0 0 0 0 0 0 0 0 0 0 0.08 0"/>
<feBlend mode="normal" in2="shape" result="effect1_innerShadow_10883_77074"/>
</filter>
</defs>
</svg>
