<svg width="33" height="36" viewBox="0 0 33 36" fill="none" xmlns="http://www.w3.org/2000/svg">
<g filter="url(#filter0_ii_10883_77096)">
<path d="M1.13876 0.613218C0.735454 1.03631 0.49707 1.69293 0.49707 2.54324V32.9236C0.49707 33.7752 0.735454 34.4305 1.13876 34.8536L1.24132 34.9525L18.4118 17.934V17.7334V17.5328L1.24132 0.51294L1.13876 0.613218Z" fill="white"/>
<path d="M24.1332 23.6072L18.4106 17.9326V17.732V17.5315L24.1346 11.8582L24.2635 11.931L31.0449 15.7498C32.9811 16.8405 32.9811 18.6249 31.0449 19.717L24.2635 23.5358L24.1332 23.6072Z" fill="white"/>
<g filter="url(#filter1_i_10883_77096)">
<path d="M24.2638 23.5336L18.4096 17.7312L1.13794 34.8514C1.77548 35.5217 2.83018 35.6042 4.01793 34.9366L24.2638 23.5336Z" fill="white"/>
</g>
<path d="M1.53852 34.8397L18.4096 18.1166L23.8138 23.473L3.88382 34.698L1.53852 34.8397ZM1.53852 34.8397C2.07474 35.2272 2.89354 35.2545 3.88362 34.6981L1.53852 34.8397Z" stroke="#08E6F8" stroke-width="0.547401"/>
<path d="M3.88363 0.76655L23.8139 11.9903L18.4109 17.348L1.53849 0.624882C2.07485 0.236997 2.89375 0.209017 3.88361 0.766542L3.88363 0.76655Z" fill="white" stroke="#08E6F8" stroke-width="0.547401"/>
</g>
<defs>
<filter id="filter0_ii_10883_77096" x="0.49707" y="0.0664062" width="32" height="35.3313" filterUnits="userSpaceOnUse" color-interpolation-filters="sRGB">
<feFlood flood-opacity="0" result="BackgroundImageFix"/>
<feBlend mode="normal" in="SourceGraphic" in2="BackgroundImageFix" result="shape"/>
<feColorMatrix in="SourceAlpha" type="matrix" values="0 0 0 0 0 0 0 0 0 0 0 0 0 0 0 0 0 0 127 0" result="hardAlpha"/>
<feOffset dy="-0.207892"/>
<feComposite in2="hardAlpha" operator="arithmetic" k2="-1" k3="1"/>
<feColorMatrix type="matrix" values="0 0 0 0 0 0 0 0 0 0 0 0 0 0 0 0 0 0 0.12 0"/>
<feBlend mode="normal" in2="shape" result="effect1_innerShadow_10883_77096"/>
<feColorMatrix in="SourceAlpha" type="matrix" values="0 0 0 0 0 0 0 0 0 0 0 0 0 0 0 0 0 0 127 0" result="hardAlpha"/>
<feOffset dy="0.207892"/>
<feComposite in2="hardAlpha" operator="arithmetic" k2="-1" k3="1"/>
<feColorMatrix type="matrix" values="0 0 0 0 1 0 0 0 0 1 0 0 0 0 1 0 0 0 0.25 0"/>
<feBlend mode="normal" in2="effect1_innerShadow_10883_77096" result="effect2_innerShadow_10883_77096"/>
</filter>
<filter id="filter1_i_10883_77096" x="1.13794" y="17.7312" width="23.126" height="17.6665" filterUnits="userSpaceOnUse" color-interpolation-filters="sRGB">
<feFlood flood-opacity="0" result="BackgroundImageFix"/>
<feBlend mode="normal" in="SourceGraphic" in2="BackgroundImageFix" result="shape"/>
<feColorMatrix in="SourceAlpha" type="matrix" values="0 0 0 0 0 0 0 0 0 0 0 0 0 0 0 0 0 0 127 0" result="hardAlpha"/>
<feOffset dy="-0.207892"/>
<feComposite in2="hardAlpha" operator="arithmetic" k2="-1" k3="1"/>
<feColorMatrix type="matrix" values="0 0 0 0 0 0 0 0 0 0 0 0 0 0 0 0 0 0 0.08 0"/>
<feBlend mode="normal" in2="shape" result="effect1_innerShadow_10883_77096"/>
</filter>
</defs>
</svg>
