<svg width="351" height="138" viewBox="0 0 351 138" fill="none" xmlns="http://www.w3.org/2000/svg">
<g filter="url(#filter0_dddd_10883_77302)">
<rect x="74.5727" y="27.3" width="201.6" height="72" rx="5.76" fill="#1B1D21"/>
<rect x="74.1282" y="26.8556" width="202.489" height="72.8889" rx="6.20444" stroke="#444445" stroke-width="0.888889"/>
</g>
<path d="M118.921 64.1357C118.952 61.715 120.252 59.4246 122.314 58.1567C121.013 56.2986 118.834 55.1206 116.567 55.0497C114.149 54.7958 111.805 56.4966 110.572 56.4966C109.316 56.4966 107.419 55.0749 105.376 55.1169C102.713 55.2029 100.231 56.7169 98.9352 59.045C96.1502 63.8667 98.2276 70.9531 100.895 74.8506C102.23 76.7591 103.79 78.8909 105.831 78.8153C107.828 78.7325 108.574 77.5417 110.985 77.5417C113.374 77.5417 114.074 78.8153 116.156 78.7673C118.3 78.7325 119.65 76.8503 120.938 74.9237C121.897 73.5638 122.635 72.0609 123.125 70.4705C120.606 69.4052 118.924 66.8704 118.921 64.1357Z" fill="white"/>
<path d="M114.987 52.4865C116.156 51.0836 116.732 49.2805 116.592 47.46C114.807 47.6475 113.158 48.5008 111.973 49.8498C110.815 51.1679 110.212 52.9393 110.326 54.6902C112.112 54.7086 113.868 53.8784 114.987 52.4865Z" fill="white"/>
<path d="M134.864 57.02V47.1272H138.277C141.474 47.1272 143.749 49.172 143.749 52.0664C143.749 54.9608 141.474 57.02 138.277 57.02H134.864ZM136.318 55.6952H138.363C140.653 55.6952 142.251 54.1976 142.251 52.0664C142.251 49.9496 140.653 48.452 138.363 48.452H136.318V55.6952ZM149.145 57.1928C147.014 57.1928 145.214 55.4072 145.214 53.2904C145.214 51.1736 147.014 49.4024 149.145 49.4024C151.262 49.4024 153.047 51.1736 153.047 53.2904C153.047 55.4072 151.262 57.1928 149.145 57.1928ZM149.145 55.9544C150.484 55.9544 151.622 54.7448 151.622 53.2904C151.622 51.8504 150.484 50.6408 149.145 50.6408C147.777 50.6408 146.639 51.8504 146.639 53.2904C146.639 54.7448 147.777 55.9544 149.145 55.9544ZM156.292 57.02L153.787 49.5752H155.241L156.955 55.1192L158.798 49.5752H160.007L161.851 55.1192L163.55 49.5752H165.004L162.499 57.02H161.188L159.403 51.4904L157.603 57.02H156.292ZM170.231 49.4024C171.872 49.4024 173.024 50.5976 173.024 52.2824V57.02H171.627V52.5272C171.627 51.4184 170.922 50.6408 169.914 50.6408C168.877 50.6408 167.984 51.3176 167.869 52.196V57.02H166.443V49.5752H167.869V50.6552C168.315 49.9208 169.223 49.4024 170.231 49.4024ZM175.064 57.02V46.9544H176.475V57.02H175.064ZM182.079 57.1928C179.948 57.1928 178.148 55.4072 178.148 53.2904C178.148 51.1736 179.948 49.4024 182.079 49.4024C184.196 49.4024 185.982 51.1736 185.982 53.2904C185.982 55.4072 184.196 57.1928 182.079 57.1928ZM182.079 55.9544C183.418 55.9544 184.556 54.7448 184.556 53.2904C184.556 51.8504 183.418 50.6408 182.079 50.6408C180.711 50.6408 179.574 51.8504 179.574 53.2904C179.574 54.7448 180.711 55.9544 182.079 55.9544ZM190.774 49.4024C192.776 49.4024 193.885 50.6696 193.885 52.5128V57.02H192.488V55.9976C191.941 56.7752 190.918 57.1928 190.011 57.1928C188.427 57.1928 187.261 56.2712 187.261 54.8168C187.261 53.3336 188.6 52.34 190.242 52.34C190.976 52.34 191.768 52.4984 192.488 52.7432V52.5128C192.488 51.5768 192.056 50.5832 190.573 50.5832C189.838 50.5832 189.118 50.8712 188.47 51.2024L187.952 50.1512C189.018 49.6184 189.954 49.4024 190.774 49.4024ZM190.285 56.0696C191.206 56.0696 192.243 55.6088 192.488 54.6872V53.6936C191.883 53.5064 191.192 53.4056 190.458 53.4056C189.464 53.4056 188.629 53.9672 188.629 54.7736C188.629 55.58 189.349 56.0696 190.285 56.0696ZM201.678 46.9544H203.089V57.02H201.678V55.724C201.102 56.6456 200.18 57.1928 199.028 57.1928C197.07 57.1928 195.601 55.58 195.601 53.2904C195.601 51.0152 197.07 49.4024 199.028 49.4024C200.18 49.4024 201.102 49.9496 201.678 50.8568V46.9544ZM199.374 55.9544C200.713 55.9544 201.678 54.8456 201.678 53.2904C201.678 51.7352 200.713 50.6408 199.374 50.6408C198.006 50.6408 197.041 51.7352 197.041 53.2904C197.041 54.8456 198.006 55.9544 199.374 55.9544ZM212.876 57.1928C210.745 57.1928 208.945 55.4072 208.945 53.2904C208.945 51.1736 210.745 49.4024 212.876 49.4024C214.993 49.4024 216.778 51.1736 216.778 53.2904C216.778 55.4072 214.993 57.1928 212.876 57.1928ZM212.876 55.9544C214.215 55.9544 215.353 54.7448 215.353 53.2904C215.353 51.8504 214.215 50.6408 212.876 50.6408C211.508 50.6408 210.37 51.8504 210.37 53.2904C210.37 54.7448 211.508 55.9544 212.876 55.9544ZM222.234 49.4024C223.875 49.4024 225.027 50.5976 225.027 52.2824V57.02H223.63V52.5272C223.63 51.4184 222.925 50.6408 221.917 50.6408C220.88 50.6408 219.987 51.3176 219.872 52.196V57.02H218.446V49.5752H219.872V50.6552C220.318 49.9208 221.226 49.4024 222.234 49.4024ZM234.672 55.6808L235.19 56.66C234.787 56.9912 234.24 57.1928 233.707 57.1928C232.555 57.1928 231.749 56.3576 231.749 55.1624V50.7848H230.625V49.5752H231.749V47.5304H233.145V49.5752H234.902V50.7848H233.145V55.0616C233.145 55.58 233.491 55.9544 233.909 55.9544C234.225 55.9544 234.513 55.8392 234.672 55.6808ZM240.431 49.4024C242.072 49.4024 243.224 50.5976 243.224 52.2824V57.02H241.827V52.5272C241.827 51.4184 241.122 50.6408 240.114 50.6408C238.991 50.6408 238.055 51.4328 238.055 52.3976V57.02H236.643V46.9544H238.055V50.684C238.501 49.9352 239.408 49.4024 240.431 49.4024ZM248.676 55.9256C249.454 55.9256 250.361 55.58 250.808 55.1192L251.7 56.0408C251.038 56.7464 249.742 57.1928 248.691 57.1928C246.617 57.1928 244.86 55.5656 244.86 53.276C244.86 51.044 246.516 49.4024 248.576 49.4024C250.851 49.4024 252.161 51.1304 252.161 53.7944H246.3C246.488 55.0328 247.395 55.9256 248.676 55.9256ZM248.633 50.6696C247.481 50.6696 246.545 51.4472 246.315 52.6568H250.779C250.62 51.5048 249.915 50.6696 248.633 50.6696Z" fill="white"/>
<path d="M145.143 76.4199L144.256 74.2426H138.087L137.2 76.4199H133.873L139.518 62.57H142.845L148.489 76.4199H145.143ZM139.115 71.7226H143.228L141.171 66.6625L139.115 71.7226ZM156.472 65.7553C159.254 65.7553 161.27 68.0132 161.27 71.1985C161.27 74.4039 159.254 76.6618 156.472 76.6618C155.021 76.6618 153.811 76.0369 152.985 74.9482V79.8874H150.041V65.9972H152.985V67.4487C153.811 66.3802 155.021 65.7553 156.472 65.7553ZM155.625 74.1822C157.258 74.1822 158.408 72.9524 158.408 71.1985C158.408 69.4647 157.258 68.235 155.625 68.235C154.194 68.235 153.146 69.2833 152.985 70.7953V71.6017C153.146 73.1338 154.194 74.1822 155.625 74.1822ZM169.781 65.7553C172.563 65.7553 174.579 68.0132 174.579 71.1985C174.579 74.4039 172.563 76.6618 169.781 76.6618C168.329 76.6618 167.12 76.0369 166.293 74.9482V79.8874H163.35V65.9972H166.293V67.4487C167.12 66.3802 168.329 65.7553 169.781 65.7553ZM168.934 74.1822C170.567 74.1822 171.716 72.9524 171.716 71.1985C171.716 69.4647 170.567 68.235 168.934 68.235C167.503 68.235 166.455 69.2833 166.293 70.7953V71.6017C166.455 73.1338 167.503 74.1822 168.934 74.1822ZM187.612 76.6618C185.212 76.6618 183.076 75.8554 181.463 74.3636L183.176 72.3274C184.487 73.4564 185.979 74.1418 187.732 74.1418C189.224 74.1418 189.99 73.4564 189.99 72.5895C189.99 71.6017 189.184 71.2993 187.067 70.8154C184.144 70.1502 182.068 69.3236 182.068 66.6423C182.068 64.082 184.164 62.3281 187.188 62.3281C189.446 62.3281 191.2 63.0337 192.611 64.2433L191.059 66.3802C189.829 65.3924 188.438 64.8481 187.108 64.8481C185.837 64.8481 185.071 65.5134 185.071 66.3399C185.071 67.3479 185.898 67.6705 188.035 68.1543C191.019 68.8196 192.994 69.7066 192.994 72.267C192.994 74.9079 190.998 76.6618 187.612 76.6618ZM200.53 73.8394L201.236 75.7546C200.631 76.299 199.684 76.6618 198.837 76.6618C197.002 76.6618 195.712 75.3514 195.712 73.4766V68.3761H194.281V65.9972H195.712V63.1345H198.534V65.9972H200.792V68.3761H198.534V73.0129C198.534 73.6983 198.978 74.1822 199.522 74.1822C199.926 74.1822 200.329 74.041 200.53 73.8394ZM208.2 76.6618C205.095 76.6618 202.495 74.162 202.495 71.1985C202.495 68.235 205.095 65.7553 208.2 65.7553C211.284 65.7553 213.865 68.235 213.865 71.1985C213.865 74.162 211.284 76.6618 208.2 76.6618ZM208.2 74.1822C209.752 74.1822 211.063 72.8113 211.063 71.1985C211.063 69.5857 209.752 68.235 208.2 68.235C206.627 68.235 205.317 69.5857 205.317 71.1985C205.317 72.8113 206.627 74.1822 208.2 74.1822ZM218.8 67.9326C219.485 66.5818 220.776 65.7553 222.368 65.7553V68.235C220.191 68.235 218.8 69.4849 218.8 71.4404V76.4199H215.856V65.9972H218.8V67.9326ZM228.985 74.0612C229.812 74.0612 230.82 73.6782 231.384 73.1338L233.259 75.049C232.332 76.0167 230.538 76.6618 229.005 76.6618C225.901 76.6618 223.482 74.3838 223.482 71.1783C223.482 68.0334 225.8 65.7553 228.844 65.7553C232.11 65.7553 234.025 68.235 234.025 72.1662H226.506C226.848 73.2951 227.755 74.0612 228.985 74.0612ZM228.965 68.3559C227.856 68.3559 226.929 69.001 226.546 70.0494H231.203C230.921 69.0212 230.154 68.3559 228.965 68.3559Z" fill="white"/>
<defs>
<filter id="filter0_dddd_10883_77302" x="0.243774" y="0.491131" width="350.258" height="220.658" filterUnits="userSpaceOnUse" color-interpolation-filters="sRGB">
<feFlood flood-opacity="0" result="BackgroundImageFix"/>
<feColorMatrix in="SourceAlpha" type="matrix" values="0 0 0 0 0 0 0 0 0 0 0 0 0 0 0 0 0 0 127 0" result="hardAlpha"/>
<feOffset dy="2.15209"/>
<feGaussianBlur stdDeviation="1.66298"/>
<feColorMatrix type="matrix" values="0 0 0 0 0 0 0 0 0 0 0 0 0 0 0 0 0 0 0.0268173 0"/>
<feBlend mode="normal" in2="BackgroundImageFix" result="effect1_dropShadow_10883_77302"/>
<feColorMatrix in="SourceAlpha" type="matrix" values="0 0 0 0 0 0 0 0 0 0 0 0 0 0 0 0 0 0 127 0" result="hardAlpha"/>
<feOffset dy="5.95024"/>
<feGaussianBlur stdDeviation="4.59791"/>
<feColorMatrix type="matrix" values="0 0 0 0 0 0 0 0 0 0 0 0 0 0 0 0 0 0 0.0399899 0"/>
<feBlend mode="normal" in2="effect1_dropShadow_10883_77302" result="effect2_dropShadow_10883_77302"/>
<feColorMatrix in="SourceAlpha" type="matrix" values="0 0 0 0 0 0 0 0 0 0 0 0 0 0 0 0 0 0 127 0" result="hardAlpha"/>
<feOffset dy="14.3259"/>
<feGaussianBlur stdDeviation="11.07"/>
<feColorMatrix type="matrix" values="0 0 0 0 0 0 0 0 0 0 0 0 0 0 0 0 0 0 0.0582218 0"/>
<feBlend mode="normal" in2="effect2_dropShadow_10883_77302" result="effect3_dropShadow_10883_77302"/>
<feColorMatrix in="SourceAlpha" type="matrix" values="0 0 0 0 0 0 0 0 0 0 0 0 0 0 0 0 0 0 127 0" result="hardAlpha"/>
<feOffset dy="47.52"/>
<feGaussianBlur stdDeviation="36.72"/>
<feColorMatrix type="matrix" values="0 0 0 0 0 0 0 0 0 0 0 0 0 0 0 0 0 0 0.08 0"/>
<feBlend mode="normal" in2="effect3_dropShadow_10883_77302" result="effect4_dropShadow_10883_77302"/>
<feBlend mode="normal" in="SourceGraphic" in2="effect4_dropShadow_10883_77302" result="shape"/>
</filter>
</defs>
</svg>
