<svg width="43" height="44" viewBox="0 0 43 44" fill="none" xmlns="http://www.w3.org/2000/svg">
<path d="M34.4763 16.6846C31.726 16.6843 29.4964 18.9142 29.4964 21.6648C29.4964 24.4151 31.726 26.6447 34.4763 26.6447C37.2269 26.6447 39.4565 24.4151 39.4565 21.6648C39.4534 18.9154 37.2257 16.6877 34.4763 16.6846ZM34.4763 24.6593C32.8228 24.6593 31.4818 23.3183 31.4818 21.6648C31.4818 20.0109 32.8228 18.6703 34.4763 18.6703C36.1301 18.6703 37.4708 20.0106 37.4708 21.6648C37.4689 23.3177 36.1292 24.6568 34.4763 24.6593Z" fill="#828282"/>
<path d="M21.7394 16.6846C18.9888 16.6846 16.7589 18.9142 16.7589 21.6648C16.7589 24.4151 18.9888 26.6447 21.7394 26.6447C24.4897 26.6447 26.7193 24.4151 26.7193 21.6648C26.7193 18.9142 24.4897 16.6846 21.7394 16.6846ZM21.7394 24.6593C20.0853 24.6593 18.7443 23.3183 18.7443 21.6648C18.7443 20.0106 20.0853 18.6703 21.7394 18.6703C23.393 18.6703 24.7336 20.0106 24.7336 21.6648C24.7336 23.3183 23.393 24.6593 21.7394 24.6593Z" fill="#828282"/>
<path d="M9.00195 16.6846C6.25133 16.6846 4.02173 18.9142 4.02173 21.6648C4.02173 24.4151 6.25133 26.6447 9.00195 26.6447C11.7522 26.6447 13.9819 24.4151 13.9819 21.6648C13.9787 18.9154 11.751 16.6877 9.00195 16.6846ZM9.00195 24.6593C7.34809 24.6593 6.00747 23.3183 6.00747 21.6648C6.00747 20.0106 7.34809 18.6703 9.00195 18.6703C10.6558 18.6703 11.9961 20.0106 11.9961 21.6648C11.9961 23.3183 10.6555 24.6593 9.00195 24.6593Z" fill="#828282"/>
</svg>
