<svg width="43" height="44" viewBox="0 0 43 44" fill="none" xmlns="http://www.w3.org/2000/svg">
<path d="M38.9782 11.2343C37.6605 11.8123 36.2564 12.1955 34.7925 12.3815C36.2985 11.4824 37.4479 10.0694 37.9883 8.36631C36.5842 9.20345 35.0339 9.79477 33.3818 10.1248C32.0485 8.70515 30.1483 7.82593 28.0754 7.82593C24.0536 7.82593 20.8157 11.0904 20.8157 15.0923C20.8157 15.6681 20.8644 16.2218 20.984 16.7488C14.9446 16.4543 9.60059 13.5597 6.0106 9.1503C5.38385 10.2377 5.01622 11.4824 5.01622 12.8222C5.01622 15.3381 6.3118 17.5683 8.243 18.8594C7.07586 18.8373 5.93088 18.4984 4.96085 17.9647C4.96085 17.9869 4.96085 18.0156 4.96085 18.0444C4.96085 21.5746 7.47893 24.5068 10.781 25.1823C10.1897 25.344 9.54522 25.4215 8.87639 25.4215C8.41131 25.4215 7.9418 25.3949 7.50108 25.2975C8.44232 28.1744 11.1132 30.2894 14.2891 30.358C11.8175 32.2914 8.67929 33.4563 5.28198 33.4563C4.68623 33.4563 4.11484 33.4298 3.54346 33.3567C6.76138 35.4318 10.575 36.6167 14.6877 36.6167C28.0555 36.6167 35.3639 25.5433 35.3639 15.9449C35.3639 15.6238 35.3528 15.3137 35.3373 15.0059C36.7791 13.9827 37.9905 12.7049 38.9782 11.2343Z" fill="#828282"/>
</svg>
